<svg width="156" height="126" viewBox="0 0 156 126" fill="none" xmlns="http://www.w3.org/2000/svg">
<g id="Group" filter="url(#filter0_d_385_28897)">
<path id="Vector" d="M96.3922 35.6843L91.8012 38.5943L81.8872 44.8743L80.8252 45.5463L80.8782 44.9183L83.3372 17.6773V17.6503L84.8762 0.624268H93.2342L96.3922 35.6843Z" fill="#13164C"/>
<path id="Vector_2" d="M77.4023 42.1943L72.1663 44.7593L60.8193 50.3133L63.5613 19.8973L65.3033 0.624268H73.6613L77.4023 42.1943Z" fill="#13164C"/>
<path id="Vector_3" d="M72.1663 44.7593L60.8184 50.3133L63.5604 19.8963C64.4014 30.4753 66.5943 38.4703 72.1663 44.7593Z" fill="#00A26C"/>
<path id="Vector_4" d="M91.8019 38.5943L81.8869 44.8743C81.5509 44.8923 81.2149 44.9093 80.8789 44.9183L83.3379 17.6773C83.8249 27.2823 85.6019 33.8093 91.8019 38.5943Z" fill="#00A26C"/>
<path id="Vector_5" d="M137.237 59.9633V117.992H115.223V43.2463L137.237 59.9633Z" fill="#0C5E9A"/>
<path id="Vector_6" d="M115.222 30.5993V117.992H7.2832V71.4783L115.222 30.5993Z" fill="#61AEE4"/>
<path id="Vector_7" d="M24.5563 86.6063H15.0723V96.6553H24.5563V86.6063Z" fill="#D4EBED"/>
<path id="Vector_8" d="M38.4449 86.6063H28.9609V96.6553H38.4449V86.6063Z" fill="#D4EBED"/>
<path id="Vector_9" d="M127.643 86.6063H78.9795V117.995H127.643V86.6063Z" fill="#13164C"/>
<path id="Vector_10" d="M127.641 86.6023H78.9775L80.7465 76.1393H125.872L127.641 86.6023Z" fill="#FF7640"/>
<g id="Group_2">
<g id="Group_3">
<path id="Vector_11" d="M99.5582 103.429H86.9121V117.994H99.5582V103.429Z" fill="#0A3C5F"/>
<path id="Vector_12" d="M93.2351 96.6553H86.9121V103.429H93.2351V96.6553Z" fill="#61AEE4"/>
<path id="Vector_13" d="M99.5584 96.6553H93.2354V103.429H99.5584V96.6553Z" fill="#D4EBED"/>
<path id="Vector_14" d="M99.5582 106.727H86.9121V108.22H99.5582V106.727Z" fill="#0C5E9A"/>
<path id="Vector_15" d="M99.5582 110.441H86.9121V111.934H99.5582V110.441Z" fill="#0C5E9A"/>
<path id="Vector_16" d="M99.5582 114.155H86.9121V115.648H99.5582V114.155Z" fill="#0C5E9A"/>
</g>
<g id="Group_4">
<path id="Vector_17" d="M119.712 103.429H107.066V117.994H119.712V103.429Z" fill="#0A3C5F"/>
<path id="Vector_18" d="M113.389 96.6553H107.066V103.429H113.389V96.6553Z" fill="#61AEE4"/>
<path id="Vector_19" d="M119.713 96.6553H113.39V103.429H119.713V96.6553Z" fill="#D4EBED"/>
<path id="Vector_20" d="M119.712 106.727H107.066V108.22H119.712V106.727Z" fill="#0C5E9A"/>
<path id="Vector_21" d="M119.712 110.441H107.066V111.934H119.712V110.441Z" fill="#0C5E9A"/>
<path id="Vector_22" d="M119.712 114.155H107.066V115.648H119.712V114.155Z" fill="#0C5E9A"/>
</g>
</g>
<g id="Group_5">
<path id="Vector_23" d="M67.777 86.6063H48.4189V117.995H67.777V86.6063Z" fill="#13164C"/>
<path id="Vector_24" d="M67.777 89.4933H48.4189V91.6303H67.777V89.4933Z" fill="#0A3C5F"/>
<path id="Vector_25" d="M67.777 94.2123H48.4189V96.3493H67.777V94.2123Z" fill="#0A3C5F"/>
<path id="Vector_26" d="M67.777 98.9313H48.4189V101.068H67.777V98.9313Z" fill="#0A3C5F"/>
<path id="Vector_27" d="M67.777 103.649H48.4189V105.786H67.777V103.649Z" fill="#0A3C5F"/>
<path id="Vector_28" d="M67.777 108.368H48.4189V110.505H67.777V108.368Z" fill="#0A3C5F"/>
<path id="Vector_29" d="M67.777 113.087H48.4189V115.224H67.777V113.087Z" fill="#0A3C5F"/>
</g>
<path id="Vector_30" d="M4.59863 67.9063L117.907 25.0013V29.5863L4.59863 72.4923V67.9063Z" fill="#FF7640"/>
<path id="Vector_31" d="M93.8314 50.3153H101.838C102.648 50.3153 103.311 49.6523 103.311 48.8423C103.311 48.0323 102.648 47.3693 101.838 47.3693H93.8314C93.0214 47.3693 92.3584 48.0323 92.3584 48.8423C92.3594 49.6523 93.0214 50.3153 93.8314 50.3153Z" fill="#0C5E9A"/>
<path id="Vector_32" d="M78.8792 57.5083H101.838C102.648 57.5083 103.311 56.8453 103.311 56.0353C103.311 55.2253 102.648 54.5623 101.838 54.5623H78.8792C78.0692 54.5623 77.4062 55.2253 77.4062 56.0353C77.4073 56.8453 78.0692 57.5083 78.8792 57.5083Z" fill="#0C5E9A"/>
<path id="Vector_33" d="M61.347 64.7003H101.839C102.649 64.7003 103.312 64.0373 103.312 63.2273C103.312 62.4173 102.649 61.7543 101.839 61.7543H61.347C60.537 61.7543 59.874 62.4173 59.874 63.2273C59.874 64.0383 60.537 64.7003 61.347 64.7003Z" fill="#0C5E9A"/>
<path id="Vector_34" d="M115.224 37.9293L141.758 58.0673V63.3873L115.224 43.2483V37.9293Z" fill="#00A26C"/>
<path id="Vector_35" d="M121.481 76.1413H117.943V61.9963C117.943 60.4973 116.723 59.2773 115.224 59.2773V55.7393C118.674 55.7393 121.481 58.5463 121.481 61.9963V76.1413Z" fill="#13164C"/>
<path id="Vector_36" d="M151.401 117.994H145.21V83.1213C145.21 78.7263 141.635 75.1513 137.24 75.1513V68.9603C145.048 68.9603 151.401 75.3133 151.401 83.1213V117.994Z" fill="#13164C"/>
<path id="Vector_37" opacity="0.32" d="M115.222 30.5993V47.8193C98.1172 37.7723 39.4062 53.5243 7.2832 85.2673V71.4783L115.222 30.5993Z" fill="#0C5E9A"/>
<path id="Vector_38" opacity="0.46" d="M137.237 59.9633V64.0673C132.142 55.2403 122.661 50.6323 115.223 54.2853V43.2463L137.237 59.9633Z" fill="#13164C"/>
<path id="Vector_39" d="M127.641 86.6023H119.893C115.382 81.6583 107.422 78.1113 98.5947 76.1393H125.872L127.641 86.6023Z" fill="#00A26C"/>
</g>
<defs>
<filter id="filter0_d_385_28897" x="0.598633" y="0.624268" width="154.803" height="125.371" filterUnits="userSpaceOnUse" color-interpolation-filters="sRGB">
<feFlood flood-opacity="0" result="BackgroundImageFix"/>
<feColorMatrix in="SourceAlpha" type="matrix" values="0 0 0 0 0 0 0 0 0 0 0 0 0 0 0 0 0 0 127 0" result="hardAlpha"/>
<feOffset dy="4"/>
<feGaussianBlur stdDeviation="2"/>
<feComposite in2="hardAlpha" operator="out"/>
<feColorMatrix type="matrix" values="0 0 0 0 0 0 0 0 0 0 0 0 0 0 0 0 0 0 0.25 0"/>
<feBlend mode="normal" in2="BackgroundImageFix" result="effect1_dropShadow_385_28897"/>
<feBlend mode="normal" in="SourceGraphic" in2="effect1_dropShadow_385_28897" result="shape"/>
</filter>
</defs>
</svg>
