<svg width="116" height="119" viewBox="0 0 116 119" fill="none" xmlns="http://www.w3.org/2000/svg">
<g id="Group 6">
<g id="Group">
<path id="Vector" d="M33.418 72.5655C33.521 72.3085 34.96 68.9665 34.909 67.9385L37.84 66.4985L38.251 67.6815L35.629 68.6585C35.629 68.6585 35.012 71.9495 34.344 72.8745L33.418 72.5655Z" fill="#61AEE4"/>
<path id="Vector_2" d="M11.4889 77.0125C10.5629 75.4705 11.0259 73.1565 11.0259 73.1565L13.2629 72.9255C13.2629 72.9255 14.6509 74.5455 14.4969 75.3165C14.3429 76.0875 16.7339 78.0935 16.7339 78.0935L11.5669 78.4015L11.4889 77.0125Z" fill="#00A26C"/>
<path id="Vector_3" d="M25.0636 78.2465C25.0636 78.2465 23.8516 72.6925 23.2936 70.1445C23.1366 69.4265 23.2466 68.6795 23.6036 68.0365C23.6096 68.0255 23.6166 68.0135 23.6226 68.0025C24.1036 67.1375 24.2566 66.1285 24.0586 65.1585L23.0586 60.2765L24.2926 60.0455L25.7636 64.8725C26.0576 65.8375 26.6936 66.6625 27.5526 67.1925C28.3856 67.7075 29.0096 68.4995 29.3156 69.4305L33.4706 82.1035L25.9896 81.1785L25.0636 78.2465Z" fill="#61AEE4"/>
<path id="Vector_4" d="M29.6133 79.2495C29.6133 79.2495 31.0533 71.9485 31.0533 71.1255L37.3773 73.5425L34.6523 82.6435C34.6523 82.6435 30.7443 80.9985 30.6423 80.8435C30.5393 80.6885 29.6133 79.2495 29.6133 79.2495Z" fill="#0C5E9A"/>
<path id="Vector_5" d="M34.7551 75.5215C34.7551 76.3305 34.2021 76.9865 33.5211 76.9865C32.8391 76.9865 32.2871 76.3305 32.2871 75.5215C32.2871 74.7125 32.8391 74.0565 33.5211 74.0565C34.2031 74.0565 34.7551 74.7125 34.7551 75.5215Z" fill="#FFA971"/>
<path id="Vector_6" d="M35.1669 78.1185C38.0459 76.7305 39.3829 76.1645 38.8689 77.1415C38.3549 78.1185 37.6349 79.3015 37.6349 79.3015L37.5319 81.5635H34.0869L35.1669 78.1185Z" fill="#FF7640"/>
<g id="Group_2">
<path id="Vector_7" d="M16.5489 72.8635C15.1629 69.4825 17.0259 67.4385 17.0259 67.4385C17.0259 67.4385 18.1889 69.7755 18.4149 69.6925C18.6399 69.6095 17.3459 67.4075 17.3849 67.3535C17.4239 67.2995 19.2758 68.4385 20.4948 70.4615C20.4948 70.4615 19.8329 72.1325 16.5489 72.8635Z" fill="#61AEE4"/>
<path id="Vector_8" d="M17.3099 70.4935C17.5819 70.5795 17.7329 70.8705 17.6469 71.1425C17.5609 71.4145 17.2698 71.5655 16.9978 71.4795C16.7258 71.3935 16.5749 71.1025 16.6609 70.8305C16.7469 70.5585 17.0379 70.4075 17.3099 70.4935Z" fill="#0C5E9A"/>
<path id="Vector_9" d="M22.6118 79.6635L21.9538 79.6045C22.1388 77.5355 21.1098 76.7045 20.0208 75.8255C18.8618 74.8895 17.6618 73.9215 18.3958 71.5265L19.0278 71.7195C18.4248 73.6875 19.3128 74.4045 20.4358 75.3115C21.5578 76.2175 22.8288 77.2435 22.6118 79.6635Z" fill="#61AEE4"/>
<path id="Vector_10" d="M22.2454 78.4945L24.3024 79.9645L24.6734 82.8475L22.3383 81.1355C22.3383 81.1355 21.2784 82.9465 20.0094 83.7395C20.0094 83.7395 20.0294 81.9975 19.5684 81.0775C19.5684 81.0775 22.0654 79.2365 22.2454 78.4945Z" fill="#61AEE4"/>
<path id="Vector_11" d="M17.2305 74.2745C17.7205 74.0055 18.1345 73.6895 18.5635 73.3605C18.9935 73.0365 19.4105 72.6955 19.8835 72.3925C19.7445 72.6385 19.5685 72.8565 19.3805 73.0605C19.1925 73.2655 18.9845 73.4515 18.7635 73.6235C18.5395 73.7895 18.3055 73.9475 18.0465 74.0635C17.7925 74.1805 17.5145 74.2735 17.2305 74.2745Z" fill="#61AEE4"/>
<path id="Vector_12" d="M18.1748 75.3475C18.2608 75.0235 18.4558 74.7365 18.6708 74.4845C18.8878 74.2305 19.1418 74.0105 19.4128 73.8155C19.6878 73.6265 19.9808 73.4605 20.2948 73.3445C20.6068 73.2265 20.9408 73.1495 21.2738 73.1645C20.6598 73.4065 20.1218 73.7225 19.6038 74.0865C19.3438 74.2655 19.0958 74.4625 18.8538 74.6675C18.6128 74.8755 18.3818 75.0895 18.1748 75.3475Z" fill="#61AEE4"/>
<path id="Vector_13" d="M19.1611 76.0355C19.2391 75.7925 19.3461 75.5615 19.4941 75.3495C19.6391 75.1355 19.8251 74.9485 20.0301 74.7905C20.4471 74.4805 20.9361 74.2905 21.4451 74.2465C21.2361 74.3975 21.0231 74.5185 20.8191 74.6495C20.6161 74.7815 20.4161 74.9085 20.2291 75.0535C20.0391 75.1925 19.8641 75.3495 19.6911 75.5145C19.5171 75.6805 19.3541 75.8655 19.1611 76.0355Z" fill="#61AEE4"/>
<path id="Vector_14" d="M19.8516 76.5635C20.1206 76.2785 20.4216 76.0795 20.7016 75.8645C20.9896 75.6555 21.2506 75.4385 21.5616 75.2025C21.4696 75.5855 21.2036 75.9005 20.8986 76.1295C20.5866 76.3545 20.2376 76.5115 19.8516 76.5635Z" fill="#61AEE4"/>
</g>
<path id="Vector_15" d="M41.1822 85.4965C41.1822 85.4965 46.7352 90.8955 47.1982 91.5895C47.6612 92.2835 48.1242 94.2885 48.1242 94.2885L47.1212 101.77L49.4352 105.472C49.4352 105.472 44.6531 113.724 43.1881 114.264C41.7231 114.804 23.8302 113.801 23.2902 113.801C22.7502 113.801 16.0402 114.726 13.5722 114.032C11.1042 113.338 5.16517 114.109 5.16517 114.109C5.16517 114.109 5.47316 113.569 4.54816 111.41C3.62216 109.25 0.306155 104.931 0.383155 104.7C0.460155 104.469 1.77116 101.924 3.08216 100.921C4.39316 99.9175 4.47016 99.6865 3.69916 98.9925C2.92816 98.2985 1.77115 98.0675 3.31315 96.9105C4.85515 95.7535 6.70615 93.9795 6.16715 91.8205C5.62715 89.6615 4.39315 88.9665 4.77915 88.0415C5.16515 87.1165 7.47816 82.5655 8.17216 81.9485C8.86616 81.3315 9.94617 80.3285 9.94617 80.3285L29.3812 85.0335L40.2562 84.4935L41.1822 85.4965Z" fill="#0A3C5F"/>
<path id="Vector_16" d="M15.3712 90.0465C15.6452 89.8635 16.7082 88.4525 16.7082 88.4525L16.6052 87.5785L19.7932 85.9335C19.7932 85.9335 21.0781 88.7105 22.2101 88.7105C23.3411 88.7105 24.8842 87.8365 26.6832 87.8365C28.4832 87.8365 30.4372 88.0425 31.1562 88.0935C31.8762 88.1445 34.2412 88.6595 35.6292 87.7845C37.0172 86.9105 36.1952 86.9105 37.6862 87.4765C39.1772 88.0425 42.0052 89.2245 40.7202 91.4865C39.4352 93.7485 38.4061 96.6795 41.0801 98.7875C43.7541 100.896 44.5252 104.135 42.1602 107.015C39.7952 109.894 38.6641 111.591 36.0931 111.077C33.5221 110.563 30.1802 109.946 25.7072 109.843C21.2342 109.74 22.0562 107.529 18.2002 107.529C14.3442 107.529 10.4882 107.735 10.4882 107.735C10.4882 107.735 11.3112 106.552 10.6422 104.959C9.97316 103.365 11.4652 101.977 10.6932 100.64C9.92215 99.3025 9.09917 99.0455 11.0022 97.0915C12.9032 95.1365 14.2912 90.7665 15.3712 90.0465Z" fill="#13164C"/>
<path id="Vector_17" d="M31.7731 97.1425C32.2361 97.1425 33.9321 97.8105 33.9321 97.8105C33.9321 97.8105 31.5151 100.845 33.9831 101.77C36.4511 102.696 36.9141 103.004 36.9141 103.004C36.9141 103.004 34.0351 106.655 33.0581 106.346C32.0811 106.037 30.5391 103.878 29.4071 103.364C28.2761 102.85 27.7621 102.336 28.7901 101.719C29.8191 101.102 32.0301 98.0675 31.7731 97.1425Z" fill="#0C5E9A"/>
<path id="Vector_18" d="M44.4213 83.4135L40.6423 85.8815C40.6423 85.8815 29.8453 85.8045 29.6133 85.8045C29.3823 85.8045 17.8904 83.0285 17.8904 83.0285C17.8904 83.0285 9.40634 80.3295 8.09534 80.4065C6.78434 80.4835 4.47034 80.1755 5.31934 78.9415C6.16734 77.7075 6.32232 77.1675 6.39932 76.2425C6.47632 75.3175 6.93935 74.2375 8.01935 74.9315C9.09935 75.6255 12.3383 78.0165 15.5003 77.7075C18.6623 77.3995 24.5243 77.3215 26.0663 77.6305C27.6083 77.9385 31.6963 78.0935 31.7733 79.3275C31.8503 80.5615 31.3873 81.4095 34.0103 80.7155C36.6323 80.0215 40.0263 81.0235 41.1053 80.0215C42.1853 79.0185 42.4933 81.3325 42.7253 81.7955C42.9563 82.2575 45.0383 82.6425 44.4213 83.4135Z" fill="#13164C"/>
<path id="Vector_19" d="M6.42477 88.4785C6.42477 88.7195 6.22879 88.9155 5.98779 88.9155C5.74679 88.9155 5.55078 88.7195 5.55078 88.4785C5.55078 88.2375 5.74679 88.0415 5.98779 88.0415C6.22879 88.0415 6.42477 88.2375 6.42477 88.4785Z" fill="white"/>
<path id="Vector_20" d="M4.62564 97.8875C4.62564 98.0435 4.39563 98.1705 4.11163 98.1705C3.82763 98.1705 3.59766 98.0435 3.59766 97.8875C3.59766 97.7315 3.82763 97.6045 4.11163 97.6045C4.39563 97.6045 4.62564 97.7315 4.62564 97.8875Z" fill="white"/>
<path id="Vector_21" d="M2.98032 103.338C2.98032 103.579 2.8423 103.775 2.6713 103.775C2.5013 103.775 2.3623 103.579 2.3623 103.338C2.3623 103.097 2.5003 102.901 2.6713 102.901C2.8423 102.901 2.98032 103.097 2.98032 103.338Z" fill="white"/>
<path id="Vector_22" d="M1.84921 104.572C1.84921 104.842 1.72222 105.061 1.56622 105.061C1.41022 105.061 1.2832 104.842 1.2832 104.572C1.2832 104.302 1.41022 104.084 1.56622 104.084C1.72222 104.084 1.84921 104.302 1.84921 104.572Z" fill="white"/>
<path id="Vector_23" d="M18.0963 88.1185C18.0963 88.3885 17.9693 88.6065 17.8133 88.6065C17.6573 88.6065 17.5303 88.3875 17.5303 88.1185C17.5303 87.8485 17.6573 87.6305 17.8133 87.6305C17.9703 87.6305 18.0963 87.8485 18.0963 88.1185Z" fill="#0C5E9A"/>
<path id="Vector_24" d="M11.7719 98.6075C11.7719 98.8485 11.5529 99.0445 11.2829 99.0445C11.0129 99.0445 10.7949 98.8485 10.7949 98.6075C10.7949 98.3665 11.0139 98.1705 11.2829 98.1705C11.5529 98.1705 11.7719 98.3665 11.7719 98.6075Z" fill="#0C5E9A"/>
</g>
<g id="Group_3">
<path id="Vector_25" d="M115.616 48.3685C115.616 48.3685 109.047 62.3875 107.48 67.3165L107.749 56.2025L108.5 25.1445C111.234 27.0215 113.51 33.2965 114.71 39.6205V39.6535C115.298 42.7135 115.616 45.7825 115.616 48.3685Z" fill="#00A26C"/>
<path id="Vector_26" opacity="0.5" d="M115.616 48.3685C115.616 48.3685 109.047 62.3875 107.48 67.3165L107.749 56.2025C111.658 53.4445 115.15 47.0145 114.71 39.6535C115.298 42.7135 115.616 45.7825 115.616 48.3685Z" fill="#00A26C"/>
<path id="Vector_27" d="M60.0243 30.7485C60.7273 28.4435 64.4773 23.9515 64.4383 22.9355C64.3993 21.9195 61.7033 22.9745 60.0243 21.0215C58.3443 19.0685 55.2193 19.6155 55.2193 19.6155C55.2193 19.6155 54.8283 21.6855 55.8833 21.2955C56.9383 20.9045 58.5783 23.4835 57.4853 24.7725C56.3913 26.0615 56.4693 28.9915 56.4693 28.9915L60.0243 30.7485Z" fill="#13164C"/>
<path id="Vector_28" d="M66.5087 59.5405C65.9697 59.4505 64.4117 59.0345 63.2447 59.1325C62.8937 59.1655 62.5757 59.2385 62.3307 59.3855C61.2777 60.0055 57.5248 60.2015 56.4718 59.5405C55.4188 58.8795 53.5017 58.1365 52.3667 59.5815C51.2407 61.0255 45.2188 60.2425 44.8678 59.5815C44.5168 58.9125 46.4667 57.0025 47.7567 55.8685C49.0457 54.7345 49.7477 50.8665 50.1807 46.8845C50.4007 44.8605 51.1187 42.1185 52.1227 39.5405C53.0937 37.0515 54.3257 34.7095 55.6477 33.2895L58.3487 33.2815C64.0527 36.1705 67.1697 48.7945 66.7867 51.0385C66.3947 53.2905 68.1497 57.5505 68.8187 58.6435C69.4787 59.7355 67.2107 59.6545 66.5087 59.5405Z" fill="#13164C"/>
<path id="Vector_29" d="M109.415 52.9385L110.588 100.572H100.686C100.686 100.572 94.0977 72.3725 94.0977 52.9385H109.415Z" fill="#13164C"/>
<path id="Vector_30" d="M92.1224 5.22654C90.2994 12.6745 91.0804 17.4665 95.2994 17.7275C99.5184 17.9875 96.3414 25.1235 96.3414 25.1235H103.633V14.6025L98.2164 4.70654L92.1224 5.22654Z" fill="#F7B68F"/>
<path id="Vector_31" d="M61.7197 31.2175C59.7517 28.7955 54.7897 26.4905 54.5167 27.5065C54.2437 28.5225 53.0327 28.7955 53.0717 30.1235C53.1107 31.4515 52.1737 30.7485 52.4077 32.0375C52.6417 33.3265 59.7517 34.8895 59.7517 34.8895L61.7197 31.2175Z" fill="#F4A086"/>
<path id="Vector_32" d="M110.697 39.3105C110.248 46.0265 109.416 52.9385 109.416 52.9385H88.583C88.583 52.9385 87.139 46.5655 86.478 39.7675C86.021 35.0595 85.939 30.1465 86.984 26.9965C88.175 23.9365 92.198 23.3735 96.548 23.2755C97.307 23.2505 98.074 23.2505 98.841 23.2505C100.514 23.2505 102.317 23.2095 104.006 23.3815C107.515 23.7405 110.526 25.0545 110.877 29.6565C111.064 32.0565 110.933 35.6555 110.697 39.3105Z" fill="#FF7640"/>
<path id="Vector_33" d="M110.697 39.3105L110.111 38.8335C109.04 37.9615 108.403 36.6575 108.387 35.2765C108.299 27.3905 106.477 24.4415 104.005 23.3815C107.514 23.7405 110.525 25.0545 110.876 29.6565C111.064 32.0565 110.933 35.6555 110.697 39.3105Z" fill="#0C5E9A"/>
<path id="Vector_34" d="M86.477 39.7675C86.02 35.0595 85.938 30.1465 86.983 26.9965C88.174 23.9365 92.197 23.3735 96.547 23.2755C101.182 28.9475 97.314 42.5665 86.477 39.7675Z" fill="#0C5E9A"/>
<path id="Vector_35" d="M110.589 100.57L110.042 118.62H94.9303C94.4733 114.646 100.438 113.952 100.438 113.952L100.658 102.095L100.683 100.569L110.589 100.57Z" fill="#FF7640"/>
<path id="Vector_36" d="M85.939 100.57L83.858 118.62H68.745C68.623 114.646 74.653 113.952 74.653 113.952L75.91 101.769L76.032 100.569L85.939 100.57Z" fill="#FF7640"/>
<path id="Vector_37" d="M88.5822 52.9385L77.3392 78.8765L76.0342 100.572H85.9362C85.9362 100.572 88.4772 87.6275 88.5812 81.6895C88.5812 81.6895 103.634 71.1695 103.634 52.9385H88.5822Z" fill="#0A3C5F"/>
<path id="Vector_38" d="M98.738 1.05954C103.686 0.174535 106.916 1.26753 106.916 6.37253C106.916 11.4765 107.697 16.2165 101.916 16.3735C96.134 16.5295 93.374 12.9875 94.989 10.9565C96.604 8.92553 97.906 7.05053 95.093 6.63353C92.28 6.21653 88.634 6.73753 88.582 2.77953C89.363 -2.37747 94.754 1.26054 98.738 1.05954Z" fill="#61AEE4"/>
<path id="Vector_39" d="M94.123 33.3785C92.556 37.6625 88.435 43.5055 80.275 50.3685C79.214 51.2575 77.647 51.2665 76.578 50.3845C73.151 47.5775 70.156 44.9415 67.691 42.6735C62.623 38.0145 59.751 34.8885 59.751 34.8885L61.718 31.2165C61.718 31.2165 65.61 33.9505 69.748 34.7335C73.893 35.5165 77.019 37.2305 77.484 38.0955C84.983 24.2635 90.067 23.7985 93.421 26.0595C94.931 27.0785 95.494 29.6325 94.123 33.3785Z" fill="#00A26C"/>
<path id="Vector_40" opacity="0.5" d="M94.1224 33.3785C92.5554 37.6625 88.4344 43.5055 80.2744 50.3685C79.2134 51.2575 77.6464 51.2665 76.5774 50.3845C73.1504 47.5775 70.1554 44.9415 67.6904 42.6735C77.6634 47.8305 83.7754 44.9415 94.1224 33.3785Z" fill="#00A26C"/>
<path id="Vector_41" d="M63.2447 59.1325C62.8937 59.1655 62.5757 59.2385 62.3307 59.3855C61.2777 60.0055 57.5248 60.2015 56.4718 59.5405C55.4188 58.8795 53.5017 58.1365 52.3667 59.5815C51.2407 61.0255 45.2188 60.2425 44.8678 59.5815C44.5168 58.9125 46.4667 57.0025 47.7567 55.8685C49.0457 54.7345 49.7477 50.8665 50.1807 46.8845C50.4007 44.8605 51.1187 42.1185 52.1227 39.5405C51.5757 43.9385 52.2617 45.8325 53.6817 44.9185C55.4527 43.7675 57.4357 47.6275 57.4357 47.6275C57.4357 47.6275 59.3128 50.5405 56.8078 52.6295C54.3108 54.7105 64.1027 53.6655 64.1027 53.6655C64.1027 53.6655 62.5837 56.7575 63.2447 59.1325Z" fill="#0A3C5F"/>
<path id="Vector_42" d="M47.486 58.6025C47.486 58.8395 47.294 59.0325 47.056 59.0325C46.819 59.0325 46.626 58.8405 46.626 58.6025C46.626 58.3655 46.818 58.1725 47.056 58.1725C47.293 58.1725 47.486 58.3645 47.486 58.6025Z" fill="#FFA971"/>
<path id="Vector_43" d="M55.7278 37.1555C55.9653 37.1555 56.1578 36.9805 56.1578 36.7645C56.1578 36.5486 55.9653 36.3735 55.7278 36.3735C55.4904 36.3735 55.2979 36.5486 55.2979 36.7645C55.2979 36.9805 55.4904 37.1555 55.7278 37.1555Z" fill="#FFA971"/>
<path id="Vector_44" d="M53.58 43.7185C53.58 43.8915 53.423 44.0315 53.228 44.0315C53.034 44.0315 52.876 43.8915 52.876 43.7185C52.876 43.5455 53.033 43.4055 53.228 43.4055C53.422 43.4055 53.58 43.5455 53.58 43.7185Z" fill="#FFA971"/>
<path id="Vector_45" d="M51.9385 45.7495C51.9385 45.8785 51.7985 45.9835 51.6255 45.9835C51.4525 45.9835 51.3125 45.8785 51.3125 45.7495C51.3125 45.6195 51.4525 45.5155 51.6255 45.5155C51.7985 45.5155 51.9385 45.6205 51.9385 45.7495Z" fill="#FFA971"/>
<path id="Vector_46" d="M74.6523 113.953L75.9093 101.77C80.8133 104.993 79.5153 112.59 74.6523 113.953Z" fill="#FFA971"/>
<path id="Vector_47" d="M100.438 113.953L100.658 102.096C106.681 104.813 104.698 113.52 100.438 113.953Z" fill="#FFA971"/>
</g>
</g>
</svg>
