<svg width="20" height="21" viewBox="0 0 20 21" fill="none" xmlns="http://www.w3.org/2000/svg">
<g clip-path="url(#clip0_443_507)">
<path fill-rule="evenodd" clip-rule="evenodd" d="M10.6826 20.85H1.10385C0.49403 20.85 0 20.3556 0 19.7461V1.95382C0 1.34408 0.494107 0.849976 1.10385 0.849976H18.8962C19.5058 0.849976 20 1.34408 20 1.95382V19.7461C20 20.3557 19.5057 20.85 18.8962 20.85H13.7997V13.1049H16.3994L16.7886 10.0865H13.7997V8.15941C13.7997 7.28551 14.0424 6.68998 15.2955 6.68998L16.8939 6.68928V3.9896C16.6175 3.95281 15.6687 3.87063 14.5648 3.87063C12.2603 3.87063 10.6826 5.27728 10.6826 7.86048V10.0865H8.0763V13.1049H10.6826V20.85Z" fill="white"/>
</g>
<defs>
<clipPath id="clip0_443_507">
<rect width="20" height="20" fill="white" transform="translate(0 0.849976)"/>
</clipPath>
</defs>
</svg>
