<svg width="313" height="167" viewBox="0 0 313 167" fill="none" xmlns="http://www.w3.org/2000/svg">
<path d="M311.465 72.5622C309.275 63.2723 304.349 55.2039 298.005 48.0999C291.758 41.0923 284.513 35.2741 276.624 30.1952C270.893 26.4985 264.903 23.3162 258.753 20.4553C253.505 18.0123 248.095 15.955 242.653 13.9942C237.791 12.2583 232.864 10.5868 227.873 9.33315C218.149 6.858 208.328 4.73643 198.346 3.2899C188.042 1.77909 177.705 1.00762 167.337 0.332578C157.258 -0.342465 147.179 0.107564 137.101 0.814752C128.053 1.45765 119.036 2.42199 110.085 3.80422C103.967 4.76857 97.8809 5.99008 91.8917 7.46874C81.7164 10.0082 71.6378 13.062 61.9133 17.0158C54.6361 19.9731 47.552 23.3805 40.7578 27.3986C31.2265 33.0239 22.4681 39.5172 15.0942 47.7785C7.55937 56.2326 2.11753 65.6832 0.475323 77.0625C-0.716085 85.388 0.346522 93.3921 3.50214 101.107C5.27315 105.479 7.59157 109.529 10.3608 113.354C14.2248 118.754 18.8294 123.48 23.8527 127.755C28.2963 131.548 33.0941 134.859 38.0852 137.945C44.3964 141.867 50.933 145.274 57.7595 148.135C65.1977 151.285 72.797 154.114 80.6216 156.268C87.7057 158.196 94.7897 160.061 102.003 161.443C110.439 163.05 118.908 164.4 127.473 165.204C137.069 166.072 146.632 167.036 157.001 166.908C161.927 167.165 167.594 166.779 173.229 166.361C179.637 165.879 186.077 165.461 192.421 164.561C198.539 163.693 204.657 162.761 210.743 161.507C217.472 160.157 224.17 158.55 230.771 156.718C235.311 155.464 239.755 153.921 244.199 152.378C252.281 149.517 260.073 146.078 267.64 142.027C274.982 138.106 281.937 133.573 288.313 128.173C296.749 121.005 303.898 112.936 308.502 102.714C312.914 92.9421 313.912 82.8807 311.465 72.5943V72.5622ZM306.731 91.8813C303.479 106.121 294.978 116.761 284.03 125.826C277.043 131.58 269.444 136.434 261.361 140.452C253.44 144.406 245.197 147.685 236.76 150.481C230.868 152.41 224.943 154.178 218.921 155.528C211.161 157.264 203.369 158.839 195.448 159.9C179.798 161.957 164.117 163.179 148.371 162.504C137.552 162.021 126.732 161.475 115.977 159.675C106.736 158.132 97.5589 156.428 88.4785 154.146C80.7504 152.185 73.28 149.646 65.8417 146.849C58.4679 144.052 51.2872 140.838 44.5252 136.852C34.0601 130.68 24.2713 123.576 16.6398 113.868C12.2606 108.275 8.68637 102.232 6.78656 95.4494C4.95115 88.9561 4.40375 82.3021 5.85276 75.4874C8.94398 60.8614 17.7346 50.125 28.7793 40.8673C36.8616 34.0847 45.9742 28.8773 55.4733 24.4091C63.4267 20.6482 71.67 17.5301 80.1064 15.0549C87.4481 12.9012 94.8541 10.844 102.357 9.46173C112.854 7.56518 123.383 5.79721 134.106 5.31504C141.544 4.99359 148.983 4.47927 157.902 4.35069C169.526 4.76858 182.6 5.12216 195.609 7.11515C204.947 8.52952 214.188 10.2975 223.365 12.5798C233.444 15.0871 243.233 18.3337 252.732 22.4483C266.61 28.3951 279.49 35.9813 290.309 46.6534C297.265 53.5324 302.835 61.4079 305.701 70.8264C307.794 77.6732 308.406 84.713 306.731 91.9134V91.8813Z" fill="white"/>
<path d="M207.104 40.0637C207.04 38.9708 207.716 38.81 208.585 38.81C215.573 38.81 222.56 38.7136 229.548 38.9065C232.671 39.0029 235.73 38.9065 238.853 38.7779C239.98 38.7457 240.914 38.9065 240.946 40.2887C241.011 43.0532 242.106 45.5605 242.685 48.1964C242.878 49.0643 243.394 50.1893 242.428 50.7679C241.204 51.5394 240.592 50.1572 240.077 49.4821C238.596 47.5856 237.179 45.689 235.537 43.9532C233.862 42.2174 231.963 41.3173 229.612 41.1888C227.455 41.0923 225.265 40.9316 223.107 40.7066C221.852 40.578 221.433 41.1245 221.433 42.2817C221.433 48.0999 221.433 53.9181 221.433 59.7042C221.433 60.8936 221.819 61.4079 223.075 61.3436C228.099 61.0865 229.612 61.5043 231.802 55.654C231.995 55.1075 232.188 54.5932 232.864 54.6896C233.573 54.8182 233.573 55.3968 233.605 55.9433C233.766 59.865 233.251 63.8509 234.056 67.7405C234.152 68.1262 234.023 68.5119 233.798 68.8977C233.476 69.4441 232.671 69.5084 232.285 68.9941C231.447 67.9012 231.061 66.5832 230.224 65.5546C228.871 63.8831 224.009 62.4365 222.109 63.2723C221.369 63.5938 221.433 64.2367 221.433 64.8153C221.433 69.2191 221.433 73.6551 221.433 78.059C221.433 79.2483 221.755 79.7948 223.011 79.6984C223.848 79.6341 224.717 79.6662 225.555 79.6984C226.617 79.7626 227.036 80.4698 227.036 81.4342C227.036 82.3342 226.36 82.5593 225.587 82.5593C220.628 82.5593 215.669 82.5593 210.678 82.5271C210.066 82.5271 209.455 82.3021 208.875 82.1414C208.167 81.9485 207.877 81.4342 208.006 80.727C208.102 80.052 208.617 79.9555 209.165 79.8269C210.292 79.5698 211.934 80.1484 212.417 79.2162C212.964 78.1875 212.707 76.6767 212.707 75.3588C212.707 64.976 212.642 54.5932 212.771 44.2104C212.771 41.9602 212.063 41.0602 209.841 41.3495C209.455 41.4138 209.068 41.3495 208.682 41.3495C207.748 41.3816 207.233 40.9637 207.168 40.0315L207.104 40.0637Z" fill="white"/>
<path d="M70.9938 121.808C69.7058 121.808 68.5788 121.519 67.645 120.94C66.679 120.362 65.9383 119.59 65.3909 118.562C64.8757 117.533 64.5859 116.344 64.5859 114.961V109.915C64.5859 108.532 64.8435 107.343 65.3909 106.314C65.9061 105.286 66.679 104.482 67.645 103.936C68.611 103.357 69.738 103.068 70.9938 103.068C72.2496 103.068 73.0224 103.293 73.924 103.743C74.7934 104.193 75.534 104.836 76.1458 105.639C76.7254 106.443 77.144 107.407 77.3694 108.5H74.729C74.568 107.922 74.3104 107.407 73.924 106.957C73.5376 106.507 73.119 106.186 72.6038 105.929C72.0886 105.671 71.5734 105.575 71.026 105.575C69.899 105.575 68.9974 105.961 68.289 106.764C67.6128 107.568 67.2586 108.597 67.2586 109.915V114.961C67.2586 116.279 67.6128 117.308 68.289 118.112C68.9652 118.915 69.899 119.301 71.026 119.301C72.153 119.301 72.5716 119.044 73.28 118.529C73.9884 118.015 74.4714 117.308 74.6968 116.344H77.3372C77.1118 117.436 76.7254 118.401 76.1136 119.204C75.5018 120.008 74.7612 120.651 73.8918 121.101C73.0224 121.551 72.0564 121.776 70.9938 121.776V121.808Z" fill="white"/>
<path d="M86.5465 121.808C85.2585 121.808 84.0992 121.519 83.1332 120.972C82.1672 120.426 81.4266 119.622 80.8792 118.594C80.3318 117.565 80.0742 116.376 80.0742 115.026V109.818C80.0742 108.468 80.3318 107.279 80.8792 106.25C81.4266 105.221 82.1672 104.45 83.1332 103.903C84.0992 103.357 85.2263 103.068 86.5465 103.068C87.8667 103.068 88.9937 103.357 89.9597 103.903C90.9257 104.45 91.6663 105.254 92.2137 106.25C92.7611 107.279 93.0187 108.468 93.0187 109.818V115.026C93.0187 116.376 92.7611 117.565 92.2137 118.594C91.6663 119.622 90.9257 120.394 89.9597 120.972C88.9937 121.519 87.8667 121.808 86.5465 121.808ZM86.5465 119.269C87.7057 119.269 88.6395 118.883 89.3157 118.144C89.9919 117.404 90.3461 116.376 90.3461 115.154V109.786C90.3461 108.532 89.9919 107.536 89.3157 106.764C88.6073 106.025 87.7057 105.639 86.5465 105.639C85.3873 105.639 84.4856 106.025 83.7772 106.764C83.0688 107.504 82.7146 108.532 82.7146 109.786V115.154C82.7146 116.408 83.0688 117.404 83.7772 118.144C84.4856 118.883 85.3873 119.269 86.5465 119.269Z" fill="white"/>
<path d="M96.9471 121.615V103.261H99.2978L108.282 117.436L107.992 117.758V103.228H110.536V121.583H108.185L99.2334 107.6L99.5232 107.279V121.583H96.9793L96.9471 121.615Z" fill="white"/>
<path d="M129.856 115.379L135.265 103.261H137.68V121.615H135.169V107.857L135.298 108.661L130.757 119.044H128.954L124.414 108.918L124.543 107.857V121.615H122.031V103.261H124.446L129.856 115.379Z" fill="white"/>
<path d="M142.221 121.615V103.261H144.797V121.615H142.221ZM143.476 105.704V103.261H154.038V105.704H143.476ZM143.476 113.74V111.297H152.653V113.74H143.476ZM143.476 121.615V119.172H154.038V121.615H143.476Z" fill="white"/>
<path d="M155.68 105.704V103.261H168.657V105.704H155.68ZM160.865 121.615V104.771H163.441V121.615H160.865Z" fill="white"/>
<path d="M168.271 121.615L175.065 103.261H177.254L184.049 121.615H181.279L176.192 106.797L171.104 121.615H168.335H168.271ZM171.394 117.597V115.154H181.054V117.597H171.394Z" fill="white"/>
<path d="M186.818 121.615V103.261H189.394V121.615H186.818ZM188.106 121.615V119.172H198.635V121.615H188.106Z" fill="white"/>
<path d="M214.156 121.808C213.254 121.808 212.417 121.712 211.644 121.551C210.872 121.39 210.131 121.133 209.422 120.78C208.746 120.458 208.102 120.008 207.49 119.526L209.1 117.565C209.809 118.176 210.582 118.626 211.419 118.915C212.256 119.204 213.19 119.365 214.156 119.365C215.122 119.365 216.507 119.108 217.247 118.626C217.988 118.144 218.342 117.437 218.342 116.536C218.342 115.829 218.149 115.283 217.795 114.929C217.408 114.543 216.925 114.286 216.346 114.093C215.734 113.901 215.09 113.772 214.381 113.643C213.705 113.515 212.997 113.386 212.288 113.226C211.58 113.065 210.936 112.808 210.356 112.486C209.777 112.133 209.294 111.65 208.939 111.008C208.585 110.365 208.392 109.529 208.392 108.436C208.392 106.7 208.972 105.382 210.099 104.45C211.226 103.518 212.836 103.036 214.929 103.036C217.022 103.036 216.893 103.196 217.827 103.518C218.761 103.839 219.694 104.321 220.596 104.964L219.115 107.022C218.406 106.507 217.73 106.121 217.022 105.864C216.313 105.607 215.637 105.479 214.929 105.479C213.673 105.479 212.707 105.736 211.999 106.218C211.29 106.7 210.968 107.439 210.968 108.339C210.968 109.047 211.161 109.561 211.58 109.915C211.999 110.268 212.514 110.557 213.158 110.718C213.802 110.879 214.51 111.04 215.251 111.2C215.927 111.329 216.603 111.49 217.279 111.683C217.956 111.875 218.567 112.133 219.115 112.518C219.662 112.872 220.113 113.354 220.435 113.997C220.757 114.608 220.95 115.444 220.95 116.44C220.95 118.144 220.371 119.462 219.179 120.394C217.988 121.326 216.346 121.776 214.188 121.776L214.156 121.808Z" fill="white"/>
<path d="M223.108 121.615V118.915H225.812V121.615H223.108Z" fill="white"/>
<path d="M227.905 121.615L234.7 103.261H236.889L243.683 121.615H240.914L235.827 106.797L230.739 121.615H227.97H227.905ZM231.029 117.597V115.154H240.689V117.597H231.029Z" fill="white"/>
<path d="M245.744 121.615V118.915H248.449V121.615H245.744Z" fill="white"/>
<path d="M64.1029 73.5908C59.7881 66.6475 59.0153 59.222 62.3963 51.7323C64.8113 46.3962 68.8685 42.6353 74.568 40.5137C80.042 38.4886 85.4516 38.36 91.0222 39.3886C92.9543 39.7422 94.9185 40.353 96.5929 41.5423C97.1081 41.9281 97.5911 41.9924 98.0097 41.4781C98.7825 40.578 99.8129 40.353 100.747 40.7709C101.874 41.3173 100.908 42.4103 100.972 43.246C101.23 46.3962 101.326 49.5786 101.552 52.7288C101.616 53.7253 101.809 54.6253 100.586 54.9789C99.2977 55.3647 99.2333 54.1753 98.8791 53.5324C97.4301 50.8644 96.4641 47.9713 94.2101 45.689C88.3496 39.7422 79.0438 39.0672 73.6985 47.7463C69.8989 53.9181 69.3193 60.5078 71.0903 67.5797C72.3461 72.53 74.8578 76.291 79.3658 78.4768C82.9722 80.2127 86.9006 80.0841 90.7002 78.8304C92.2781 78.3161 92.9865 77.0625 92.9865 75.4231C92.9865 73.3337 92.9865 71.2442 92.9865 69.1548C92.9865 67.3868 92.3747 66.4225 90.346 66.5832C89.541 66.6475 87.8988 67.4511 87.8988 65.5867C87.8988 63.5938 89.4122 64.1724 90.6036 64.1724C92.6967 64.2045 94.7897 64.1724 96.8827 64.1724C99.2977 64.1724 101.681 64.1724 104.096 64.1724C104.901 64.1724 105.802 64.2045 105.899 65.201C106.028 66.3261 105.19 66.6154 104.224 66.6154C102.196 66.6475 101.616 67.7405 101.713 69.6691C101.842 72.0479 101.713 74.4587 101.777 76.8696C101.809 78.2518 101.198 78.959 99.9417 79.4412C91.8595 82.5271 83.6162 83.6843 75.1798 81.3699C70.6073 80.1162 66.6467 77.6411 64.1029 73.5265V73.5908Z" fill="white"/>
<path d="M182.986 74.298C182.374 73.7837 181.666 73.9766 181.151 74.6195C180.957 74.8445 180.796 75.1338 180.571 75.3588C177.995 78.0268 174.936 78.7983 171.491 76.3874C169.14 74.7802 167.594 72.4657 165.501 70.6978C164.052 69.5084 164.31 68.4798 165.179 67.3547C166.435 65.7153 167.498 63.9474 168.625 62.2115C170.46 59.3828 171.877 55.9111 176.063 55.7504C176.353 55.7504 176.61 55.4611 176.514 54.7218C172.135 54.2396 167.691 54.4003 163.247 54.6575C163.022 54.6575 162.668 55.0111 162.636 55.2039C162.571 55.7825 163.151 55.9111 163.569 56.0719C165.405 56.779 165.888 57.9684 165.373 59.8971C164.761 62.2437 164.052 64.4617 162.314 66.5832C159.512 63.5616 157.322 60.1543 153.974 57.8398C150.915 55.7504 151.011 55.8147 154.135 53.661C158.739 50.4786 158.578 43.7603 153.974 40.803C149.723 38.0707 145.376 37.9421 140.9 40.6744C135.909 43.6961 134.042 49.4178 136.714 54.2396C137.391 55.4611 138.518 56.104 139.451 56.9719C140.514 57.9363 140.482 58.4506 139.355 59.2542C137.358 60.7007 135.362 62.1794 133.816 64.1402C127.827 71.5978 130.145 78.3161 138.067 81.2413C145.151 83.8451 151.945 82.6557 157.226 76.6124C158.063 75.6481 158.739 75.8088 159.448 76.7732C160.285 77.8661 161.122 78.8947 162.249 79.7626C166.757 83.1379 171.716 82.945 176.61 81.3056C179.186 80.4377 181.44 78.5411 182.889 76.0017C183.211 75.4552 183.598 74.8445 182.986 74.3302V74.298ZM142.285 47.5534C142.382 46.0426 142.188 45.1104 142.736 44.2747C143.766 42.6674 144.861 41.028 147.051 41.2852C149.24 41.5423 150.174 43.3425 150.818 45.2069C151.784 48.0356 150.979 50.7037 149.627 53.1788C149.047 54.2717 147.759 54.561 146.568 53.8217C144.088 52.2145 141.963 50.3501 142.285 47.5856V47.5534ZM154.843 75.2945C151.43 78.0911 145.344 79.5376 141.705 75.9374C139.967 74.2337 138.582 72.3693 138.582 69.3477C138.872 66.2618 140.256 63.2402 142.478 60.5721C143.122 59.8007 143.766 59.6721 144.668 60.2828C149.433 63.4973 153.169 67.644 156.26 72.4015C157.322 74.0087 155.551 74.7159 154.843 75.3267V75.2945Z" fill="white"/>
<path d="M272.406 96.7673C272.374 97.7317 272.02 98.2138 271.021 98.1817C270.313 98.1817 269.637 98.1817 268.928 98.1817H155.262C117.201 98.1817 79.1726 98.1817 41.112 98.1817C39.9205 98.1817 38.2783 98.7603 38.4715 96.4459C38.5359 95.5137 38.8579 94.9672 39.8239 94.9672C40.4357 94.9672 41.0476 94.9672 41.6916 94.9672C117.555 94.9672 193.419 94.9672 269.283 94.9672C270.538 94.9672 272.503 94.1636 272.406 96.7673Z" fill="#FEFEFE"/>
</svg>
