<svg width="20" height="21" viewBox="0 0 20 21" fill="none" xmlns="http://www.w3.org/2000/svg">
<g clip-path="url(#clip0_443_513)">
<path fill-rule="evenodd" clip-rule="evenodd" d="M10 15.85C12.7614 15.85 15 13.6114 15 10.85C15 8.08855 12.7614 5.84998 10 5.84998C7.23857 5.84998 5 8.08855 5 10.85C5 13.6114 7.23857 15.85 10 15.85ZM10 14.1833C11.8409 14.1833 13.3333 12.6909 13.3333 10.85C13.3333 9.00903 11.8409 7.51664 10 7.51664C8.15905 7.51664 6.66667 9.00903 6.66667 10.85C6.66667 12.6909 8.15905 14.1833 10 14.1833Z" fill="white"/>
<path d="M15.0003 5.0166C14.5401 5.0166 14.167 5.3897 14.167 5.84993C14.167 6.31017 14.5401 6.68327 15.0003 6.68327C15.4606 6.68327 15.8337 6.31017 15.8337 5.84993C15.8337 5.3897 15.4606 5.0166 15.0003 5.0166Z" fill="white"/>
<path fill-rule="evenodd" clip-rule="evenodd" d="M1.37797 4.4134C0.833008 5.48296 0.833008 6.88309 0.833008 9.68335V12.0167C0.833008 14.8169 0.833008 16.2171 1.37797 17.2866C1.85734 18.2274 2.62224 18.9923 3.56306 19.4717C4.63262 20.0167 6.03275 20.0167 8.83301 20.0167H11.1663C13.9666 20.0167 15.3668 20.0167 16.4363 19.4717C17.3771 18.9923 18.142 18.2274 18.6213 17.2866C19.1663 16.2171 19.1663 14.8169 19.1663 12.0167V9.68335C19.1663 6.88309 19.1663 5.48296 18.6213 4.4134C18.142 3.47258 17.3771 2.70768 16.4363 2.22832C15.3668 1.68335 13.9666 1.68335 11.1663 1.68335H8.83301C6.03275 1.68335 4.63262 1.68335 3.56306 2.22832C2.62224 2.70768 1.85734 3.47258 1.37797 4.4134ZM11.1663 3.35002H8.83301C7.40537 3.35002 6.43488 3.35132 5.68474 3.4126C4.95404 3.4723 4.58037 3.58051 4.31971 3.71332C3.6925 4.03291 3.18257 4.54284 2.86298 5.17005C2.73017 5.43072 2.62196 5.80438 2.56226 6.53508C2.50097 7.28522 2.49967 8.25572 2.49967 9.68335V12.0167C2.49967 13.4443 2.50097 14.4148 2.56226 15.1649C2.62196 15.8957 2.73017 16.2693 2.86298 16.53C3.18257 17.1572 3.6925 17.6671 4.31971 17.9867C4.58037 18.1195 4.95404 18.2278 5.68474 18.2874C6.43488 18.3487 7.40537 18.35 8.83301 18.35H11.1663C12.594 18.35 13.5644 18.3487 14.3146 18.2874C15.0453 18.2278 15.419 18.1195 15.6797 17.9867C16.3068 17.6671 16.8168 17.1572 17.1363 16.53C17.2692 16.2693 17.3774 15.8957 17.4371 15.1649C17.4983 14.4148 17.4997 13.4443 17.4997 12.0167V9.68335C17.4997 8.25572 17.4983 7.28522 17.4371 6.53508C17.3774 5.80438 17.2692 5.43072 17.1363 5.17005C16.8168 4.54284 16.3068 4.03291 15.6797 3.71332C15.419 3.58051 15.0453 3.4723 14.3146 3.4126C13.5644 3.35132 12.594 3.35002 11.1663 3.35002Z" fill="white"/>
</g>
<defs>
<clipPath id="clip0_443_513">
<rect width="20" height="20" fill="white" transform="translate(0 0.849976)"/>
</clipPath>
</defs>
</svg>
