<svg width="20" height="21" viewBox="0 0 20 21" fill="none" xmlns="http://www.w3.org/2000/svg">
<g clip-path="url(#clip0_443_519)">
<path fill-rule="evenodd" clip-rule="evenodd" d="M18.5714 0.849976H1.42411C0.638393 0.849976 0 1.4973 0 2.29194V19.408C0 20.2026 0.638393 20.85 1.42411 20.85H18.5714C19.3572 20.85 20 20.2026 20 19.408V2.29194C20 1.4973 19.3572 0.849976 18.5714 0.849976ZM6.04464 17.9928H3.08036V8.44819H6.04911V17.9928H6.04464ZM4.5625 7.14462C3.61161 7.14462 2.84375 6.3723 2.84375 5.42587C2.84375 4.47944 3.61161 3.70712 4.5625 3.70712C5.50892 3.70712 6.28125 4.47944 6.28125 5.42587C6.28125 6.37676 5.51339 7.14462 4.5625 7.14462ZM17.1562 17.9928H14.192V13.35C14.192 12.2428 14.1697 10.8187 12.6517 10.8187C11.1072 10.8187 10.8705 12.0241 10.8705 13.2696V17.9928H7.90625V8.44819H10.75V9.75173H10.7902C11.1875 9.00176 12.1562 8.21158 13.5982 8.21158C16.5982 8.21158 17.1562 10.1892 17.1562 12.7607V17.9928Z" fill="white"/>
</g>
<defs>
<clipPath id="clip0_443_519">
<rect width="20" height="20" fill="white" transform="translate(0 0.849976)"/>
</clipPath>
</defs>
</svg>
