<svg width="186" height="40" viewBox="0 0 186 40" fill="none" xmlns="http://www.w3.org/2000/svg">
<path d="M20.5586 0V2.84395L22.5832 1.89245L20.5586 0Z" fill="#8FC36B"/>
<path d="M0 25.3985L5.60077 35.1808L6.16315 32.2331L14.1932 37.7495L16.0717 19.3799C16.0717 19.3799 16.7129 15.7955 20.5592 17.3028L28.3528 21.7587C28.3528 21.7587 31.5916 19.9832 29.1959 17.1357L13.7442 6.04749L11.2813 31.1057L7.0975 28.1914L7.83966 24.5736L0.000886502 25.4003L0 25.3985Z" fill="#8FC36B"/>
<path d="M0 25.3983L4.51586 22.8639L11.8702 22.2606L7.83878 24.5717L0 25.3983Z" fill="#6AB42D"/>
<path d="M11.8703 22.2606L11.5505 25.5935L7.09668 28.1904L7.83884 24.5717L11.8703 22.2606Z" fill="#238235"/>
<path d="M11.5505 25.5939H11.8216L11.2804 31.105L7.09668 28.1907L11.5505 25.5939Z" fill="#6AB42D"/>
<path d="M25.736 9.74374V10.165L21.0908 6.83207L25.6519 4.67493L25.736 9.74374Z" fill="#238235"/>
<path d="M40.7842 31.3391L41.5937 21.5567L24.655 29.13C22.7155 29.9971 20.5217 28.584 20.5288 26.4717V26.2799L20.5589 17.3022C16.7117 15.795 16.0723 19.3785 16.0723 19.3785L14.1938 37.7472L37.3604 27.3405L37.046 32.5447L33.2111 33.7003L38.0016 39.9984L43.6023 30.3841L40.7851 31.3382L40.7842 31.3391Z" fill="#238235"/>
<path d="M41.5932 21.5576L24.6545 29.1309C22.715 29.998 20.5213 28.5848 20.5283 26.4725V26.2808L28.3999 21.7405C30.2996 20.5692 30.7211 18.5422 28.9632 16.9646L13.7417 6.04779L22.5821 1.89355L20.5576 0.00109863H31.7759L28.4858 7.18748L25.6518 4.67506L21.0969 6.83573L41.5923 21.5594L41.5932 21.5576Z" fill="#6AB42D"/>
<path d="M25.7356 10.1647L28.5723 12.2031L28.4864 7.18527L25.6523 4.67285L25.7356 10.1647Z" fill="#8FC36B"/>
<path d="M28.5722 12.2033L31.7818 5.07497L31.7756 0L28.4863 7.18551L28.5722 12.2033Z" fill="#238235"/>
<path d="M38.0008 40L33.7161 37.5201L29.1152 31.0452L33.2095 33.7009L38.0008 40Z" fill="#8FC36B"/>
<path d="M29.1152 31.0449L32.2167 29.652L37.0443 32.5452L33.2095 33.7007L29.1152 31.0449Z" fill="#6AB42D"/>
<path d="M32.2173 29.6523L37.3602 27.3422L37.0449 32.5455L32.2173 29.6523Z" fill="#8FC36B"/>
<path d="M51.6138 13.9436C51.6138 10.5903 51.6251 7.24006 51.6025 3.88675C51.5968 3.25119 51.7384 2.99696 52.3901 3.00604C55.2316 3.03328 58.076 3.00303 60.9176 3C62.6911 3 64.2464 3.55081 65.4193 5.06101C66.1616 6.01737 66.4222 7.15532 66.4732 8.35077C66.5525 10.1787 66.7338 12.043 65.9859 13.7651C65.663 14.5096 65.119 15.1482 64.6431 15.811C64.4362 16.1015 64.1359 16.3194 64.3966 16.7371C65.6091 18.674 66.0482 20.9469 66.8217 23.0745C66.9605 23.4558 67.0625 23.8523 67.2155 24.2276C67.4619 24.8298 67.2466 24.9932 66.6914 24.9842C65.4051 24.963 64.1189 24.963 62.8327 24.9993C62.3086 25.0144 62.0735 24.7874 61.9205 24.2699C61.3255 22.2755 60.6796 20.2962 60.0846 18.2987C59.8977 17.6753 59.5832 17.3696 58.9628 17.4059C58.5123 17.4331 58.0618 17.4241 57.6114 17.4089C57.0873 17.3908 56.906 17.648 56.9116 18.1988C56.9258 20.1509 56.8805 22.106 56.9201 24.0581C56.9343 24.7844 56.6736 24.9841 56.0504 24.969C54.8548 24.9388 53.6564 24.9267 52.4637 24.9751C51.8149 24.9993 51.6025 24.7723 51.6081 24.0732C51.6365 20.6987 51.6195 17.3212 51.6195 13.9467H51.6166L51.6138 13.9436ZM56.9088 10.0728C56.9088 10.5782 56.9229 11.0837 56.906 11.5891C56.8833 12.149 57.1411 12.3759 57.6369 12.379C58.5605 12.379 59.484 12.385 60.4048 12.3911C60.8921 12.3911 61.1669 12.1641 61.164 11.6133C61.1612 10.6024 61.1555 9.59162 61.164 8.58078C61.1697 8.0572 60.9204 7.83626 60.4586 7.83324C59.4897 7.83324 58.5236 7.83324 57.5547 7.83324C57.1099 7.83324 56.8975 8.07838 56.906 8.55656C56.9116 9.06198 56.906 9.5674 56.906 10.0728H56.9088Z" fill="#238235"/>
<path d="M71.8293 13.9515C71.8293 10.5902 71.8449 7.22892 71.8168 3.86765C71.8105 3.20025 72.02 2.997 72.7077 3.00003C76.7436 3.0243 80.7794 3.0061 84.8152 3.00307C85.7374 3.00307 85.7687 3.03644 85.7781 3.9526C85.7874 5.06595 85.7749 6.17929 85.8156 7.28961C85.8375 7.88117 85.6217 8.10261 84.9996 8.09655C82.8833 8.06924 80.7638 8.10868 78.6474 8.07531C77.9409 8.06621 77.6283 8.29071 77.6908 8.99451C77.7314 9.45259 77.7127 9.9137 77.7189 10.3718C77.7377 11.3061 77.7502 11.3395 78.7474 11.3517C80.5918 11.3759 82.4331 11.4002 84.2775 11.3759C84.934 11.3668 85.1622 11.5761 85.1341 12.2102C85.0841 13.3447 85.0841 14.4824 85.0997 15.62C85.1091 16.16 84.884 16.339 84.3432 16.3329C82.4737 16.3208 80.6074 16.339 78.738 16.3481C77.7627 16.3541 77.6876 16.436 77.7002 17.3977C77.7064 17.9771 77.7408 18.5596 77.7127 19.139C77.6845 19.7427 77.9596 19.952 78.5567 19.949C80.6981 19.9399 82.8426 19.955 84.984 19.9611C85.9187 19.9641 85.9531 20.0006 85.9562 20.8985C85.9594 22.0361 85.9469 23.1707 85.9594 24.3083C85.9656 24.8028 85.7562 25 85.2466 25C81.0107 24.9909 76.7779 24.9879 72.542 25C71.9043 25 71.823 24.6845 71.8262 24.1779C71.8387 20.7681 71.8324 17.3583 71.8324 13.9485L71.8293 13.9515Z" fill="#238235"/>
<path d="M90.4672 13.9029C90.4672 12.2143 90.4639 10.5286 90.4672 8.83998C90.477 5.19502 92.406 3.24457 96.4646 3.07689C99.8385 2.93568 103.226 3.0357 106.61 3.01804C107.044 3.01804 107.232 3.18278 107.232 3.55934C107.238 4.84787 107.242 6.13641 107.265 7.42789C107.274 7.98685 106.873 7.99862 106.425 8.00156C103.542 8.01038 100.658 8.02509 97.7747 8.03686C96.6818 8.04274 96.6193 8.09569 96.616 9.07827C96.616 12.3614 96.616 15.6416 96.616 18.9247C96.616 19.8543 96.6818 19.9043 97.745 19.9161C98.8214 19.9249 99.8945 19.922 100.971 19.9485C101.606 19.9632 101.893 19.716 101.863 19.1512C101.84 18.6834 101.814 18.2128 101.837 17.745C101.863 17.1919 101.563 17.0066 100.991 16.9772C99.3777 16.8977 99.3777 16.886 99.3777 15.3974C99.3777 14.5766 99.3942 13.7558 99.3777 12.935C99.3678 12.4938 99.5456 12.3026 100.062 12.3055C102.396 12.3232 104.73 12.3261 107.064 12.3173C107.581 12.3173 107.748 12.4997 107.745 12.9468C107.725 15.1503 107.762 17.3537 107.702 19.5572C107.683 20.2721 107.538 21.0134 107.281 21.693C106.626 23.4316 105.171 24.4142 103.189 24.7025C100.48 25.0967 97.7516 25.0996 95.0459 24.7084C92.508 24.3406 90.9115 22.9403 90.6449 20.6516C90.4244 18.7717 90.5099 16.8624 90.4639 14.9649C90.454 14.6149 90.4639 14.2618 90.4639 13.9088C90.4672 13.9088 90.4704 13.9088 90.4737 13.9088L90.4672 13.9029Z" fill="#238235"/>
<path d="M123.149 3.09204C124.105 3.09204 125.059 3.09809 126.016 3.09204C126.478 3.08901 126.685 3.30687 126.778 3.76374C128.188 10.5321 129.613 17.2945 131.029 24.0598C131.2 24.8828 131.116 24.9827 130.276 24.9827C128.962 24.9827 127.648 24.9494 126.334 24.9766C125.794 24.9857 125.566 24.7739 125.47 24.2565C125.266 23.1431 125.008 22.0387 124.801 20.9252C124.705 20.4048 124.435 20.187 123.919 20.19C122.318 20.2021 120.716 20.2082 119.117 20.1961C118.628 20.193 118.448 20.4744 118.355 20.892C118.121 21.9509 117.824 22.9978 117.653 24.0659C117.53 24.8314 117.179 25.0371 116.45 24.9948C115.331 24.9282 114.206 24.9645 113.084 24.9706C112.184 24.9736 112.133 24.9221 112.358 24.0205C113.699 18.5955 115.04 13.1705 116.39 7.74852C116.588 6.9558 116.795 6.16006 117.071 5.39154C117.626 3.86359 118.781 3.1102 120.356 3.02548C121.286 2.97404 122.219 3.01639 123.152 3.01639C123.152 3.0406 123.152 3.0648 123.152 3.09204H123.149ZM121.676 15.3006C121.937 15.3006 122.201 15.3006 122.462 15.3006C123.497 15.2945 123.689 15.0615 123.491 14.0358C123.164 12.3354 122.831 10.638 122.498 8.9376C122.411 8.48981 122.366 7.96032 121.754 7.96335C121.193 7.96335 121.124 8.4535 121.028 8.88011C120.701 10.3324 120.362 11.7848 120.041 13.2401C119.741 14.5976 120.286 15.2834 121.676 15.2975V15.3006Z" fill="#238235"/>
<path d="M147.809 14.0662C147.833 13.7633 147.882 13.4634 147.882 13.1605C147.888 10.0949 147.904 7.02633 147.87 3.96076C147.861 3.23678 148.066 2.9702 148.819 3.00655C149.94 3.06411 151.063 3.03685 152.184 3.01565C152.658 3.00656 152.891 3.11864 152.888 3.65481C152.873 10.4887 152.87 17.3226 152.882 24.1565C152.882 24.7715 152.695 25.0381 152.04 24.9956C151.287 24.9472 150.528 24.9623 149.771 24.9744C149.07 24.9896 148.59 24.6988 148.198 24.1172C146.03 20.9062 143.838 17.7074 141.655 14.5085C141.545 14.348 141.447 14.1753 141.309 14.045C141.214 13.9541 141.021 13.8481 140.939 13.8875C140.813 13.9481 140.697 14.1177 140.666 14.2601C140.617 14.4934 140.632 14.7387 140.632 14.9811C140.62 18.0224 140.593 21.0668 140.617 24.1081C140.623 24.826 140.369 25.0259 139.683 24.9956C138.563 24.9441 137.439 24.9472 136.319 24.9653C135.777 24.9744 135.602 24.7745 135.602 24.2444C135.615 17.4105 135.618 10.5766 135.602 3.74265C135.602 3.17013 135.783 2.9702 136.359 3.00352C137.136 3.04593 137.92 3.04897 138.701 3.01565C139.38 2.98536 139.83 3.23071 140.216 3.80021C142.365 6.96574 144.545 10.1101 146.725 13.2544C146.958 13.5906 147.27 13.8754 147.546 14.1844C147.631 14.145 147.717 14.1056 147.803 14.0662H147.809Z" fill="#238235"/>
<path d="M174.674 3.00708C174.637 3.32741 174.626 3.5601 174.58 3.78372C173.35 9.55263 172.146 15.3246 170.862 21.0784C170.639 22.0786 170.172 23.0638 169.638 23.925C169.095 24.8044 168.136 25.025 167.175 24.9978C165.419 24.9434 163.663 24.8588 161.907 24.8074C161.404 24.7923 161.28 24.4841 161.198 24.0338C160.304 19.1685 159.399 14.3092 158.495 9.44686C158.152 7.60649 157.802 5.76916 157.46 3.92879C157.301 3.07358 157.355 3.00105 158.141 3.00105C159.357 3.00105 160.576 3.03127 161.789 3.00105C162.317 2.98594 162.541 3.16726 162.637 3.7384C163.431 8.37408 164.251 13.0067 165.071 17.6364C165.17 18.2015 165.269 18.7726 165.436 19.3196C165.498 19.5251 165.733 19.7547 165.925 19.8001C166.038 19.8273 166.31 19.5402 166.358 19.3498C166.655 18.1924 166.932 17.0259 167.169 15.8534C167.978 11.8554 168.781 7.85733 169.553 3.85324C169.68 3.19748 169.943 2.98292 170.551 3.00105C171.894 3.04033 173.24 3.01313 174.671 3.01313L174.674 3.00708Z" fill="#238235"/>
<path d="M185.446 14.0227C185.446 17.4057 185.43 20.7886 185.459 24.1716C185.466 24.8203 185.227 25.0143 184.547 24.9992C183.041 24.9658 181.536 24.9749 180.03 24.9962C179.449 25.0022 179.171 24.8658 179.174 24.2626C179.19 17.4238 179.19 10.5851 179.174 3.74944C179.174 3.17045 179.403 2.99159 180.013 3.00068C181.545 3.02796 183.078 3.03403 184.61 3.00068C185.284 2.98553 185.463 3.22198 185.459 3.80703C185.436 7.21427 185.449 10.6215 185.449 14.0287L185.446 14.0227Z" fill="#238235"/>
<path d="M54.8252 33.0509C54.8685 32.2004 54.8734 31.3427 54.9697 30.4993C55.066 29.6583 55.5549 29.1866 56.3954 29.1128C57.2721 29.0342 58.1559 29.0365 59.0374 29.0008C59.3625 28.9889 59.5503 29.108 59.5238 29.463C59.5094 29.6512 59.5094 29.8442 59.5238 30.0324C59.5503 30.3993 59.3552 30.4827 59.0277 30.4684C58.3967 30.4422 57.7634 30.4446 57.13 30.4303C56.7446 30.4207 56.5664 30.5994 56.5664 30.9782C56.5616 32.3076 56.5496 33.6346 56.5399 34.964C56.5375 35.4048 56.7759 35.5692 57.195 35.562C57.7898 35.5525 58.3847 35.5644 58.9796 35.543C59.6346 35.5192 59.5046 35.9766 59.5407 36.3625C59.5792 36.7866 59.4468 37.0201 58.982 36.9986C58.1198 36.9629 57.2552 36.97 56.3978 36.8914C55.5646 36.8152 55.0203 36.2696 54.9625 35.4405C54.9071 34.6472 54.9504 33.8491 54.9504 33.0533C54.9095 33.0533 54.8685 33.0533 54.8276 33.0533L54.8252 33.0509Z" fill="#238235"/>
<path d="M61.0583 32.9467C61.0583 32.2194 61.039 31.4921 61.0631 30.7672C61.0992 29.7495 61.7398 29.075 62.7585 29.0294C63.6207 28.9886 64.4853 28.991 65.3475 29.0318C66.3831 29.0822 67.0381 29.7879 67.0478 30.8296C67.0598 32.2842 67.0598 33.7364 67.0381 35.191C67.0213 36.2711 66.359 36.948 65.2801 36.984C64.4371 37.0104 63.5918 37.0032 62.7489 36.9696C61.723 36.9288 61.0992 36.2783 61.0559 35.2438C61.039 34.8621 61.051 34.4781 61.051 34.0964C61.051 33.7148 61.051 33.3307 61.051 32.9491C61.0535 32.9491 61.0559 32.9491 61.0583 32.9491V32.9467ZM62.655 32.9515C62.655 33.602 62.6646 34.2524 62.6526 34.9029C62.6454 35.3542 62.8573 35.587 63.3004 35.599C63.7989 35.611 64.2975 35.6086 64.796 35.6014C65.2487 35.5942 65.451 35.3398 65.451 34.9053C65.451 33.6236 65.451 32.3418 65.451 31.0601C65.451 30.604 65.2319 30.3976 64.7767 30.4072C64.2975 30.4168 63.8182 30.4192 63.339 30.4072C62.838 30.3928 62.6526 30.6568 62.655 31.1153C62.6574 31.7274 62.655 32.3394 62.655 32.9515Z" fill="#238235"/>
<path d="M73.1949 33.6218C73.1949 33.3825 73.1949 33.1456 73.1949 32.9064C73.1997 31.793 73.219 30.6796 73.2069 29.5662C73.2021 29.0498 73.4959 28.9977 73.915 29.0001C74.322 29.0001 74.5724 29.0806 74.5676 29.5568C74.5508 31.8404 74.5556 34.1239 74.5435 36.4099C74.5411 36.905 74.0956 37.1561 73.6284 36.8955C73.3755 36.7558 73.1588 36.5094 72.9926 36.2678C72.2027 35.1331 71.4392 33.9771 70.6517 32.84C70.5048 32.6292 70.288 32.4657 70.105 32.2786L69.9412 32.3591C69.922 32.5534 69.8883 32.7476 69.8883 32.9419C69.8834 34.0363 69.8883 35.1307 69.8858 36.2275C69.8858 36.8884 69.8112 36.9192 69.0429 36.9477C68.4698 36.969 68.5613 36.5994 68.5613 36.2702C68.5613 34.1003 68.5516 31.928 68.5733 29.7581C68.5733 29.5165 68.7515 29.0664 68.8286 29.0711C69.1634 29.0901 69.5944 29.1422 69.7967 29.3601C70.2471 29.841 70.5891 30.4214 70.9624 30.971C71.4416 31.6769 71.8992 32.3994 72.3857 33.0982C72.547 33.3304 72.7782 33.5152 72.9757 33.7236C73.0504 33.6905 73.125 33.6573 73.1997 33.6241L73.1949 33.6218Z" fill="#238235"/>
<path d="M77.4046 32.3571C77.395 32.5374 77.3757 32.7178 77.3757 32.8982C77.3781 34.0325 77.3589 35.1669 77.4022 36.2988C77.4239 36.8589 77.1662 36.9586 76.6821 36.9681C76.1932 36.9776 76.0632 36.783 76.068 36.3297C76.0849 34.1179 76.068 31.9086 76.0824 29.6968C76.0824 29.4832 76.1836 29.1154 76.304 29.0893C76.5737 29.0276 76.9037 29.0822 77.171 29.1842C77.342 29.2507 77.4576 29.4785 77.5732 29.6493C78.4113 30.8715 79.2374 32.0984 80.0827 33.3158C80.1766 33.4511 80.362 33.527 80.5041 33.6291C80.5788 33.4677 80.7137 33.3063 80.7161 33.145C80.7377 31.9726 80.7426 30.8027 80.7305 29.6304C80.7281 29.2364 80.7811 28.954 81.2868 29.0062C81.7083 29.0489 82.1153 28.9944 82.1057 29.6493C82.0719 31.8421 82.1009 34.0349 82.0792 36.2253C82.0792 36.4626 81.966 36.8209 81.7926 36.9064C81.4073 37.101 81.0075 36.9894 80.7426 36.5979C80.0201 35.53 79.3 34.462 78.5702 33.3965C78.3896 33.1307 78.1897 32.8744 77.9778 32.6324C77.8598 32.4971 77.7008 32.3974 77.5612 32.2835L77.4022 32.3595L77.4046 32.3571Z" fill="#238235"/>
<path d="M83.6132 32.9959C83.6132 31.8737 83.6276 30.7515 83.606 29.6317C83.5987 29.19 83.7553 29.0253 84.208 29.0324C85.3568 29.0444 86.508 29.0468 87.6568 29.0014C88.2612 28.9775 88.3287 29.2617 88.3431 29.7583C88.36 30.3337 88.0565 30.3552 87.623 30.3361C87.0498 30.3122 86.4719 30.3409 85.8987 30.3265C85.4772 30.317 85.3183 30.5032 85.3231 30.9115C85.3399 32.4372 85.1738 32.2796 86.6525 32.282C86.9391 32.282 87.2281 32.2963 87.5147 32.2748C87.9 32.2462 88.0613 32.3823 88.0758 32.7858C88.1023 33.5832 88.0975 33.6095 87.2738 33.6095C86.8138 33.6095 86.3538 33.6023 85.8939 33.6095C85.2966 33.6214 85.2821 33.6382 85.2966 34.7269C85.3014 35.1256 85.1184 35.6581 85.8722 35.6318C86.5224 35.6079 87.1751 35.6652 87.8253 35.6485C88.3961 35.6342 88.3359 36.009 88.3624 36.3767C88.3889 36.7683 88.295 36.9808 87.8398 36.9784C86.5947 36.9665 85.3496 36.9808 84.1021 36.9999C83.7191 37.0047 83.6059 36.828 83.6108 36.477C83.6204 35.3166 83.6156 34.1587 83.6156 32.9983L83.6132 32.9959Z" fill="#238235"/>
<path d="M89.8738 33.0178C89.8738 32.3089 89.8545 31.6024 89.8786 30.8936C89.9171 29.6873 90.4397 29.1322 91.627 29.0601C92.429 29.012 93.2334 29.0048 94.0377 29C94.6952 28.9952 94.4351 29.5191 94.4833 29.8459C94.5314 30.1679 94.4496 30.4058 94.0329 30.3961C93.4188 30.3793 92.8047 30.4082 92.193 30.3913C91.7691 30.3793 91.5475 30.5139 91.5451 30.9728C91.5403 32.2728 91.5235 33.5752 91.497 34.8752C91.4873 35.3967 91.7378 35.5961 92.2363 35.5817C92.7541 35.5673 93.2719 35.6057 93.7897 35.5793C94.2545 35.5553 94.5074 35.6538 94.4809 36.1993C94.4592 36.651 94.505 37.0379 93.8499 36.997C93.1057 36.949 92.3567 36.997 91.6102 36.9538C90.4999 36.8913 89.9412 36.3218 89.8882 35.202C89.8545 34.4763 89.881 33.7483 89.881 33.0202C89.8786 33.0202 89.8738 33.0202 89.8713 33.0202L89.8738 33.0178Z" fill="#238235"/>
<path d="M99.5418 33.6781C99.5418 34.5786 99.5201 35.4791 99.5514 36.3795C99.5658 36.8322 99.3997 37.02 98.9614 36.9983C98.8096 36.9911 98.6555 36.9839 98.5014 36.9911C98.0679 37.0128 97.9089 36.8466 97.9137 36.3844C97.933 34.6219 97.9137 32.8595 97.8969 31.0971C97.8897 30.3676 97.8439 30.3363 97.1021 30.305C97.0058 30.3001 96.9095 30.3002 96.8155 30.2977C96.1003 30.2833 95.8305 29.9053 96.0955 29.2432C96.1412 29.1276 96.3507 29.012 96.4856 29.012C97.9788 28.9952 99.4743 29.0048 100.967 29C101.396 29 101.413 29.2769 101.389 29.5827C101.365 29.8836 101.488 30.2857 100.963 30.2905C100.943 30.2905 100.924 30.2905 100.905 30.2905C99.9961 30.3563 99.5418 30.8531 99.5418 31.7809C99.5418 32.4141 99.5418 33.0449 99.5418 33.6781Z" fill="#238235"/>
<path d="M102.901 32.9412C102.901 31.8033 102.91 30.6654 102.896 29.5274C102.891 29.1672 103.009 29.0289 103.387 29.0145C104.591 28.9692 104.591 28.9573 104.591 30.1358C104.591 32.185 104.574 34.2342 104.603 36.281C104.611 36.8225 104.454 37.0658 103.895 36.9847C103.821 36.9728 103.744 36.9847 103.667 36.9847C103.159 36.9831 102.905 36.7358 102.903 36.2428C102.903 35.1431 102.903 34.0433 102.903 32.9412H102.901Z" fill="#238235"/>
<path d="M107.502 32.2758C107.49 32.483 107.464 32.6901 107.464 32.8973C107.459 34.0735 107.447 35.2497 107.466 36.4259C107.474 36.8878 107.274 37.0212 106.84 36.9974C106.436 36.9736 106.101 36.9974 106.108 36.4116C106.132 34.5568 106.118 32.7044 106.125 30.8496C106.125 30.3139 106.016 29.6424 106.291 29.1591C106.305 29.1329 106.322 29.1091 106.346 29.0948C106.366 29.0829 106.39 29.0805 106.411 29.0757C106.857 29.0162 107.235 29.19 107.529 29.5186C107.758 29.7734 107.929 30.071 108.107 30.3591C108.285 30.6472 108.502 30.9353 108.699 31.2258C109.164 31.9068 109.627 32.5877 110.091 33.2663C110.14 33.3354 110.193 33.402 110.255 33.4782C110.388 33.6354 110.645 33.5711 110.686 33.3711C110.708 33.2687 110.722 33.1782 110.722 33.0877C110.744 31.9496 110.787 30.8115 110.746 29.6758C110.722 28.9757 111.165 29.0543 111.606 29.0067C112.158 28.9472 112.122 29.2948 112.122 29.652C112.122 31.4687 112.083 33.2901 112.122 35.1068C112.134 35.6283 112.129 36.1545 112.052 36.6712C112.04 36.745 112.025 36.8259 111.965 36.8712C111.929 36.8998 111.883 36.9116 111.837 36.9188C111.512 36.9759 111.17 36.8902 110.901 36.7021C110.583 36.4807 110.431 36.1188 110.219 35.8116C110.05 35.5664 109.884 35.3188 109.718 35.0711C109.253 34.3735 108.791 33.6759 108.319 32.9806C108.133 32.7092 107.897 32.4711 107.685 32.2163L107.498 32.2782L107.502 32.2758Z" fill="#238235"/>
<path d="M113.638 32.9742C113.638 32.2242 113.607 31.4742 113.646 30.7266C113.696 29.733 114.229 29.1373 115.221 29.0674C116.348 28.9878 117.48 28.9975 118.612 29.0047C118.73 29.0047 118.867 29.0192 118.961 29.0987C119.084 29.2024 119.067 29.364 119.055 29.5087C119.04 29.651 119.04 29.7957 119.05 29.938C119.057 30.0224 119.067 30.1092 119.038 30.1888C118.98 30.3576 118.783 30.4324 118.604 30.4348C118.417 30.4396 118.226 30.4131 118.038 30.4155C117.824 30.4179 117.61 30.4155 117.395 30.4155C116.921 30.4179 116.449 30.4227 115.975 30.4083C115.534 30.3962 115.324 30.5795 115.322 31.0039C115.319 31.6285 115.317 32.2532 115.315 32.8754C115.315 33.2902 115.327 33.705 115.327 34.1173C115.327 34.6069 115.141 35.4365 115.777 35.6101C116.15 35.7114 116.533 35.5957 116.909 35.5788C117.169 35.5667 117.494 35.5836 117.622 35.3039C117.711 35.1085 117.694 34.8843 117.67 34.6696C117.641 34.4019 117.578 34.0643 117.277 33.9799C117.215 33.9606 117.145 33.9582 117.087 33.9292C117.013 33.8931 116.96 33.8207 116.928 33.7435C116.887 33.6423 116.878 33.5289 116.861 33.4204C116.827 33.1985 116.849 32.9429 117.022 32.803C117.157 32.6945 117.347 32.6897 117.521 32.6897C117.839 32.6897 118.156 32.6897 118.474 32.6897C118.689 32.6897 119.023 32.6246 119.173 32.832C119.238 32.9236 119.235 33.0442 119.231 33.1551C119.202 33.8328 119.175 34.5104 119.146 35.1881C119.129 35.6053 119.101 36.0491 118.855 36.3867C118.691 36.6086 118.445 36.7605 118.185 36.8473C117.925 36.9341 117.648 36.9655 117.374 36.9824C116.656 37.0258 115.936 36.9824 115.218 36.9245C114.92 36.9004 114.611 36.8714 114.351 36.7243C114.031 36.5434 113.829 36.201 113.732 35.8441C113.612 35.3931 113.636 34.9108 113.634 34.4502C113.634 34.3272 113.648 32.9646 113.646 32.9646C113.643 32.9646 113.641 32.9646 113.638 32.9646V32.9742Z" fill="#238235"/>
<path d="M128.541 29.0372C128.944 29.0372 129.348 29.0636 129.748 29.03C130.336 28.9819 130.328 29.34 130.333 29.7583C130.338 30.1837 130.28 30.453 129.746 30.4193C129.04 30.376 128.327 30.4145 127.619 30.3953C127.154 30.3833 126.966 30.5828 126.969 31.0467C126.974 32.5274 126.853 32.3759 128.224 32.3879C129.071 32.3952 129.931 32.5081 130.336 33.3759C130.774 34.3157 130.815 35.3349 130.266 36.2411C130.059 36.5824 129.56 36.9093 129.168 36.943C128.048 37.0391 126.913 36.9862 125.786 36.979C125.314 36.9766 125.44 36.6161 125.447 36.3493C125.456 36.032 125.403 35.6714 125.919 35.6786C126.685 35.6882 127.453 35.6498 128.219 35.669C128.753 35.6834 129.018 35.4935 128.965 34.9359C128.948 34.746 128.958 34.5537 128.961 34.3614C128.961 34.0056 128.794 33.8518 128.431 33.8422C127.915 33.8278 127.393 33.8109 126.887 33.7244C125.933 33.5585 125.408 32.9865 125.283 32.0274C125.24 31.6885 125.218 31.3399 125.244 30.9986C125.343 29.7631 126.034 29.0877 127.277 29.0131C127.696 28.9867 128.12 29.0083 128.541 29.0083C128.541 29.0179 128.541 29.0252 128.541 29.0348V29.0372Z" fill="#238235"/>
<path d="M138.149 32.3995C138.149 33.2918 138.165 34.1865 138.144 35.0787C138.112 36.3361 137.59 36.8944 136.333 36.9612C135.495 37.0065 134.647 37.0208 133.809 36.9564C132.778 36.8776 132.217 36.3027 132.198 35.2958C132.159 33.3586 132.183 31.4189 132.171 29.4792C132.171 29.1667 132.292 29.0522 132.609 29.0307C133.857 28.9496 133.857 28.94 133.857 30.1831C133.857 31.741 133.869 33.3013 133.852 34.8593C133.847 35.365 134.035 35.6036 134.553 35.5893C134.936 35.5798 135.321 35.606 135.704 35.6012C136.352 35.5917 136.482 35.4629 136.484 34.8306C136.489 33.1582 136.509 31.4833 136.472 29.8109C136.46 29.2335 136.655 29.0021 137.226 29.0546C137.378 29.0689 137.532 29.0498 137.686 29.0331C138.031 28.9973 138.168 29.1357 138.163 29.4864C138.149 30.455 138.158 31.4261 138.158 32.3947C138.153 32.3947 138.151 32.3947 138.146 32.3947L138.149 32.3995Z" fill="#238235"/>
<path d="M139.671 32.9548C139.671 31.8291 139.683 30.7059 139.663 29.5802C139.656 29.1898 139.781 29.0365 140.186 29.0389C141.125 29.0461 142.064 28.9862 143.001 29.003C144.586 29.0293 145.166 29.5754 145.333 31.137C145.345 31.2495 145.352 31.3645 145.354 31.4794C145.424 33.5607 144.721 34.308 142.642 34.3152C141.224 34.32 141.359 34.3271 141.356 35.5941C141.356 35.6899 141.356 35.7857 141.354 35.8791C141.337 37.0311 141.337 37.0144 140.188 36.9952C139.777 36.988 139.661 36.818 139.666 36.4396C139.68 35.278 139.671 34.114 139.671 32.95V32.9548ZM141.352 31.6567C141.352 31.8483 141.364 32.0375 141.352 32.2291C141.313 32.756 141.532 32.9859 142.084 32.9931C143.69 33.0147 143.69 33.0266 143.688 31.4172C143.688 31.3597 143.688 31.3022 143.688 31.2447C143.68 30.4208 143.555 30.2987 142.707 30.2963C141.805 30.2931 141.354 30.7458 141.354 31.6543L141.352 31.6567Z" fill="#238235"/>
<path d="M146.876 32.9737C146.876 31.848 146.888 30.7199 146.869 29.5941C146.861 29.1845 146.989 29.0097 147.425 29.0193C148.46 29.0384 149.501 28.9618 150.532 29.0265C151.9 29.1127 152.444 29.7067 152.49 31.0791C152.509 31.6468 152.478 32.2288 152.367 32.7821C152.186 33.6875 151.627 34.1713 150.703 34.2647C150.17 34.3174 149.631 34.2983 149.094 34.2887C148.728 34.2815 148.562 34.4276 148.564 34.7917C148.566 35.3258 148.542 35.8623 148.559 36.3964C148.571 36.7773 148.434 36.9353 148.037 36.9641C146.859 37.0527 146.859 37.0671 146.859 35.8982C146.859 34.9234 146.859 33.951 146.859 32.9761H146.873L146.876 32.9737ZM150.878 31.6659C150.878 30.7446 150.413 30.2815 149.482 30.2767C149.424 30.2767 149.366 30.2767 149.311 30.2767C148.682 30.2863 148.554 30.4181 148.559 31.0672C148.559 31.3713 148.564 31.6755 148.564 31.9797C148.564 32.9809 148.59 32.9737 149.595 32.9809C150.975 32.9905 150.883 32.8587 150.881 31.6683L150.878 31.6659Z" fill="#238235"/>
<path d="M154.005 32.9733C154.005 31.8382 154.017 30.7007 153.998 29.5656C153.99 29.1444 154.152 28.9683 154.571 29.0064C154.684 29.0159 154.802 29.0183 154.915 29.0064C155.474 28.9588 155.693 29.1753 155.681 29.7583C155.652 31.3861 155.674 33.0161 155.683 34.6438C155.691 35.6362 155.695 35.6338 156.719 35.6481C157.063 35.6528 157.41 35.6885 157.752 35.66C158.323 35.6124 158.448 35.8765 158.463 36.3953C158.482 36.9855 158.137 36.9831 157.733 36.9831C156.678 36.9831 155.626 36.9807 154.571 36.9997C154.159 37.0069 153.988 36.8688 153.995 36.4405C154.017 35.2864 154.002 34.1298 154.002 32.9757L154.005 32.9733Z" fill="#238235"/>
<path d="M161.635 32.9955C161.635 34.1174 161.618 35.2393 161.642 36.3612C161.652 36.8205 161.51 37.0477 161.026 36.9903C160.893 36.976 160.756 36.976 160.623 36.9903C160.127 37.0477 159.959 36.8516 159.964 36.3469C159.988 34.1222 159.985 31.8952 159.964 29.6705C159.959 29.1873 160.086 28.9457 160.607 29.0103C160.758 29.0294 160.915 29.027 161.067 29.0103C161.49 28.9696 161.645 29.1538 161.64 29.5701C161.623 30.7111 161.635 31.8521 161.635 32.9931V32.9955Z" fill="#238235"/>
<path d="M163.15 32.9951C163.15 31.8687 163.164 30.74 163.143 29.6136C163.136 29.1726 163.29 28.9953 163.742 29.0001C164.932 29.0193 166.122 29.0121 167.312 29.0025C167.692 29.0001 167.909 29.1271 167.861 29.5321C167.82 29.8772 167.981 30.3445 167.336 30.3206C166.724 30.2966 166.107 30.3421 165.493 30.335C165.045 30.3302 164.836 30.4859 164.829 30.9676C164.805 32.2857 164.788 32.2833 166.112 32.2833C166.343 32.2833 166.572 32.2833 166.803 32.2833C167.56 32.2833 167.784 32.5565 167.572 33.2995C167.536 33.4313 167.278 33.5703 167.114 33.5846C166.56 33.6278 166.001 33.6278 165.445 33.6182C165.016 33.611 164.807 33.7716 164.812 34.2197C164.829 35.8541 164.65 35.5905 166.163 35.6289C166.604 35.6409 167.044 35.6528 167.487 35.66C167.909 35.6648 167.926 35.9476 167.909 36.2544C167.892 36.5611 168.017 36.9805 167.512 36.9877C166.187 37.0069 164.865 36.9997 163.54 36.9925C163.164 36.9925 163.14 36.7217 163.143 36.4293C163.148 35.2838 163.143 34.1358 163.143 32.9903C163.143 32.9903 163.148 32.9903 163.15 32.9903V32.9951Z" fill="#238235"/>
<path d="M175.145 36.9387C175.029 36.9863 174.897 36.9816 174.771 36.9911C174.557 37.0101 174.347 37.0006 174.14 36.9435C173.912 36.8792 173.654 36.6482 173.558 36.4292C173.307 35.8578 173.146 35.2482 172.934 34.6601C172.707 34.034 171.881 33.7387 171.337 34.1149C171.185 34.2197 171.094 34.4911 171.082 34.6911C171.05 35.2578 171.053 35.8292 171.082 36.3982C171.106 36.8316 170.908 36.9816 170.506 36.9697C170.333 36.9649 170.159 36.9601 169.988 36.9697C169.603 36.9935 169.432 36.8316 169.432 36.4411C169.432 34.1268 169.425 31.8125 169.413 29.4983C169.413 29.184 169.533 29.0554 169.851 29.053C170.848 29.0435 171.845 28.9864 172.842 29.003C174.266 29.0268 174.848 29.5578 175.039 30.953C175.169 31.9078 175.048 32.8149 174.338 33.5483C174.097 33.7982 174.116 34.0078 174.256 34.3078C174.627 35.0982 174.959 35.9078 175.294 36.7125C175.304 36.7363 175.313 36.7601 175.311 36.7863C175.308 36.8173 175.289 36.8411 175.267 36.8625C175.231 36.8982 175.19 36.9244 175.147 36.9435L175.145 36.9387ZM171.075 31.4744C171.075 31.6863 171.075 31.9006 171.087 32.1125C171.094 32.2673 171.111 32.434 171.219 32.5435C171.342 32.6697 171.542 32.6792 171.718 32.6864C172.074 32.703 172.43 32.7459 172.784 32.7006C172.893 32.6864 173.001 32.6649 173.098 32.6173C173.341 32.4959 173.379 32.2387 173.396 31.9935C173.423 31.6078 173.447 31.2125 173.396 30.8268C173.379 30.6887 173.331 30.5483 173.23 30.4554C173.112 30.3483 172.943 30.3197 172.784 30.3173C172.479 30.3125 172.175 30.2983 171.869 30.2816C171.641 30.2673 171.383 30.3244 171.226 30.5054C171.053 30.7078 171.077 30.9649 171.075 31.2102C171.075 31.2983 171.075 31.3863 171.072 31.4721L171.075 31.4744Z" fill="#238235"/>
<path d="M178.932 36.9594C178.511 36.9594 178.09 36.9474 177.668 36.9617C177.208 36.9785 177.018 36.809 177.042 36.3269C177.064 35.883 177.141 35.5966 177.68 35.6109C178.427 35.6324 179.176 35.6181 179.925 35.6014C180.498 35.5871 180.606 35.4224 180.601 34.6682C180.597 33.9642 180.488 33.8496 179.913 33.8043C179.303 33.7565 178.687 33.7207 178.097 33.5823C177.449 33.4296 177.064 32.957 176.936 32.2983C176.902 32.1312 176.869 31.9618 176.849 31.7923C176.623 29.9546 177.406 29.0406 179.265 29.0024C179.973 28.9881 180.683 29.043 181.394 29.0406C182.049 29.0382 181.909 29.5036 181.94 29.883C181.974 30.2888 181.772 30.4153 181.389 30.4057C180.659 30.389 179.93 30.4105 179.202 30.3986C178.776 30.3914 178.545 30.5561 178.571 31C178.571 31.0382 178.564 31.0764 178.562 31.1145C178.485 32.2864 178.516 32.3126 179.708 32.3508C180.108 32.3651 180.524 32.3866 180.895 32.5155C181.223 32.6276 181.558 32.8425 181.784 33.1026C182.384 33.7947 182.376 35.5608 181.827 36.2935C181.449 36.7971 180.907 36.9594 180.315 36.988C179.855 37.0119 179.395 36.9928 178.935 36.9928C178.935 36.9808 178.935 36.9689 178.935 36.957L178.932 36.9594Z" fill="#238235"/>
</svg>
