<svg width="328" height="111" viewBox="0 0 328 111" fill="none" xmlns="http://www.w3.org/2000/svg">
<path d="M166.48 12.4588C166.48 12.4588 130.426 17.4193 133.934 58.7178C133.934 58.7178 120.626 22.2644 155.228 7.03694L166.48 12.4588Z" fill="white"/>
<path d="M181.483 51.7961C181.483 51.7961 195.639 19.8417 156.802 1.26887C156.802 1.26887 196.365 9.22864 192.13 45.336L181.483 51.7961Z" fill="white"/>
<path d="M138.17 44.9902C138.17 44.9902 161.278 71.8689 196.486 47.7586C196.486 47.7586 170.594 77.4061 139.138 56.9874L138.17 44.9902Z" fill="white"/>
<path d="M152.688 23.3026C152.688 23.3026 161.158 18.8036 171.684 26.8788C171.684 26.8788 177.007 30.801 177.007 38.2992C177.128 45.7976 170.353 48.3355 170.353 48.3355C170.353 48.3355 173.619 48.5664 175.313 47.9895C175.313 47.9895 169.869 52.6038 162.125 50.7579C154.382 48.9124 151.358 41.8754 151.358 41.8754C151.358 41.8754 150.874 46.0282 152.81 48.3355C152.81 48.3355 141.074 41.1834 148.817 29.8781C148.817 29.8781 151.599 25.379 158.012 24.9176C158.133 24.9176 156.076 23.0719 152.688 23.3026Z" fill="white"/>
<path d="M157.77 23.7641C157.77 23.7641 161.642 21.5722 168.538 24.9176C175.434 28.3783 177.128 35.0693 174.466 41.6448C171.925 48.2201 166.481 48.3355 166.481 48.3355C166.481 48.3355 169.143 49.2584 170.837 48.9124C170.837 48.9124 163.214 53.4112 156.318 49.0276C156.318 49.0276 151.962 46.4897 150.511 41.9908C150.511 41.9908 149.664 44.4133 150.632 46.3745C150.632 46.3745 144.098 39.6836 149.664 31.4931C149.664 31.4931 153.898 25.6099 162.004 25.4944C162.004 25.6099 160.069 23.9948 157.77 23.7641Z" fill="white"/>
<path d="M0 109.937C0 109.937 0.241977 108.207 0.241977 107.284C0.241977 105.207 0.241977 62.0631 0.241977 62.0631H19.4792C26.7385 62.0631 31.457 62.294 33.7557 62.7555C37.1434 63.4475 40.0473 65.0625 42.2251 67.4852C44.5239 69.9076 45.6128 73.0224 45.6128 76.8292C45.6128 79.7131 44.8867 82.2512 43.6768 84.2122C42.3461 86.1731 40.6522 87.7884 38.5953 88.9419C36.5385 90.0954 34.4818 90.9031 32.4249 91.2491C29.5213 91.7106 25.4075 91.9412 19.9631 91.9412H12.0988C12.0988 91.9412 12.0988 92.2872 12.0988 102.093C12.2199 112.014 0 109.937 0 109.937ZM12.2199 70.2536V83.8661H18.7532C23.4718 83.8661 26.6176 83.6353 28.1902 83.1738C29.7631 82.7124 30.973 81.9049 31.9409 80.8668C32.788 79.8285 33.272 78.5595 33.272 77.1752C33.272 75.4448 32.6668 73.9453 31.336 72.9069C30.0052 71.7534 28.4323 71.0611 26.4964 70.8305C25.0447 70.5999 22.1409 70.4845 17.9063 70.4845H12.2199V70.2536Z" fill="white"/>
<path fill-rule="evenodd" clip-rule="evenodd" d="M70.7779 103.708C76.2224 103.708 78.0372 100.709 78.0372 98.4012V91.8257C78.0372 91.8257 71.7459 92.518 67.3902 93.4409C63.5186 94.2484 62.3087 95.4019 62.3087 98.4012C62.3087 101.862 64.6075 103.708 70.7779 103.708ZM71.7459 71.984C82.0298 71.984 90.015 75.2141 90.015 84.2121V98.7473C90.015 105.207 83.4817 110.168 71.2619 110.168C58.8001 110.168 50.8147 106.361 50.8147 97.7092C50.8147 90.2108 56.6223 88.365 72.5926 86.0579L78.0372 85.2504C78.0372 80.5207 77.4323 78.4441 69.4471 78.4441C62.3087 78.4441 55.0494 80.7513 55.0494 80.7513C53.8396 78.2135 54.2024 75.2141 56.0174 74.1758C58.074 73.2529 62.4297 71.984 71.7459 71.984Z" fill="white"/>
<path fill-rule="evenodd" clip-rule="evenodd" d="M308.763 103.708C314.207 103.708 316.022 100.709 316.022 98.4012V91.8257C316.022 91.8257 309.73 92.518 305.376 93.4409C301.505 94.2484 300.293 95.4019 300.293 98.4012C300.293 101.862 302.591 103.708 308.763 103.708ZM309.73 71.984C320.015 71.984 328 75.2141 328 84.2121V98.7473C328 105.207 321.468 110.168 309.246 110.168C296.785 110.168 288.8 106.361 288.8 97.8246C288.8 90.3262 294.607 88.4804 310.578 86.1734L316.022 85.3656C316.022 80.6359 315.418 78.5595 307.431 78.5595C300.293 78.5595 293.034 80.8668 293.034 80.8668C291.825 78.3289 292.188 75.3296 294.003 74.2912C296.059 73.2529 300.416 71.984 309.73 71.984Z" fill="white"/>
<path fill-rule="evenodd" clip-rule="evenodd" d="M233.75 109.245C232.056 109.822 229.515 110.168 224.918 110.168C215.965 110.168 210.52 106.246 210.52 97.8247V58.6024C210.52 58.6024 211.609 58.2564 214.634 58.2564C219.594 58.2564 222.74 61.6017 222.74 65.7548V97.2478C222.74 101.747 224.071 103.362 229.999 103.362C233.266 103.362 236.17 103.016 236.17 103.016C236.895 106.246 235.928 108.438 233.75 109.245Z" fill="white"/>
<path d="M243.671 99.7857C248.873 101.978 254.561 103.131 261.819 103.131C268.474 103.131 270.287 101.285 270.287 99.3242C270.287 91.2492 242.582 98.4013 242.582 82.3664C242.582 75.6757 249.115 71.5226 262.302 71.5226C267.625 71.5226 271.376 71.9841 276.699 73.4838C283.597 75.4448 278.878 81.9049 278.878 81.9049C273.554 80.1746 267.505 78.7904 262.665 78.7904C255.407 78.7904 254.197 80.0594 254.197 82.2512C254.197 89.0573 282.145 83.5201 282.145 99.0936C282.145 105.554 275.853 110.168 261.456 110.168C254.924 110.168 251.536 109.361 247.179 107.976C247.179 107.976 240.162 106.246 243.671 99.7857Z" fill="white"/>
<path d="M109.253 75.0987C111.068 73.4838 114.213 71.8688 117.843 71.8688C121.472 71.8688 123.892 73.0223 126.191 75.2142C128.49 73.2529 133.813 71.8688 139.258 71.8688C150.994 71.8688 154.865 77.1751 154.865 84.3275C154.865 84.3275 154.865 91.2491 154.865 101.977C154.865 112.821 142.645 109.706 142.645 109.706V84.443C142.645 81.3282 141.436 80.0593 137.685 80.0593C135.507 80.0593 133.692 80.5207 132.119 81.2128C132.24 81.9049 132.24 82.5972 132.24 83.2892C132.24 83.2892 132.24 91.8257 132.24 102.093C132.24 112.36 120.021 109.706 120.021 109.706V84.2121C120.021 81.0974 118.69 80.0593 115.06 80.0593C112.519 80.0593 110.705 80.8668 109.374 81.6742C109.374 81.6742 109.374 91.9411 109.374 102.208C109.374 112.475 97.0327 109.822 97.0327 109.822V72.2148C96.9117 72.2148 105.26 69.1001 109.253 75.0987Z" fill="white"/>
<path d="M161.156 90.5567C161.156 87.3268 162.003 84.2121 163.818 81.2127C165.633 78.2134 168.174 75.9062 171.44 74.2912C174.707 72.6762 178.458 71.8687 182.45 71.8687C188.742 71.8687 193.823 73.7143 197.816 77.2905C201.808 80.8667 203.865 85.3656 203.865 90.903C203.865 96.4402 201.808 101.054 197.816 104.631C193.823 108.322 188.742 110.052 182.571 110.052C178.821 110.052 175.191 109.245 171.682 107.745C168.294 106.246 165.633 104.054 163.818 101.054C162.003 98.2858 161.156 94.7098 161.156 90.5567ZM172.408 91.0182C172.408 94.5944 173.376 97.3631 175.312 99.3241C177.248 101.285 179.668 102.208 182.571 102.208C185.475 102.208 187.774 101.285 189.71 99.3241C191.645 97.3631 192.613 94.5944 192.613 90.903C192.613 87.3268 191.645 84.5581 189.71 82.5971C187.774 80.6359 185.354 79.713 182.571 79.713C179.668 79.713 177.248 80.6359 175.312 82.5971C173.376 84.6735 172.408 87.4422 172.408 91.0182Z" fill="white"/>
</svg>
