<svg width="313" height="119" viewBox="0 0 313 119" fill="none" xmlns="http://www.w3.org/2000/svg">
<path d="M0 84.2727C0 74.1858 0 64.0655 0 53.9787C0 47.2094 0.804266 40.6077 3.51866 34.3077C4.45697 32.163 5.56284 30.1188 6.70221 28.0746C9.04799 23.8857 11.7624 19.8979 15.1135 16.4463C17.8614 13.5978 20.9779 11.1515 24.2955 8.9733C26.7083 7.36477 29.2217 5.99081 31.8355 4.7509C34.1143 3.67855 36.4936 2.80727 38.9734 2.13704C40.5819 1.7014 42.1569 1.29927 43.799 0.964157C48.9597 -0.108198 54.1539 -0.175224 59.3816 0.226909C63.6375 0.56202 67.7594 1.46682 71.8142 2.77375C75.9026 4.08068 79.7899 5.92379 83.4426 8.16904C87.1623 10.4813 90.5804 13.2292 93.6634 16.3792C96.7129 19.4623 99.2933 22.9139 101.472 26.6336C103.683 30.4204 105.359 34.4082 106.666 38.6306C107.302 40.7083 107.839 42.786 108.174 44.8637C109.012 49.7228 109.179 54.5819 108.676 59.508C108.341 62.8256 107.604 66.0091 106.8 69.2262C106.096 71.9071 105.024 74.3869 104.018 76.9337C103.214 79.0114 101.907 80.8881 100.701 82.7982C98.355 86.5849 95.473 90.0031 92.2225 93.0526C88.7038 96.3702 84.9171 99.2521 80.6276 101.531C78.0138 102.938 75.3664 104.145 72.6185 105.117C69.4014 106.222 66.0503 107.094 62.6322 107.496C60.454 107.764 58.3428 108.233 56.131 108.2C55.2598 108.2 54.9917 107.864 55.0252 107.06C55.0252 103.24 55.0587 99.4532 55.0252 95.6329C55.0252 94.9292 55.2933 94.5271 55.997 94.5941C58.0412 94.6946 59.9848 94.0579 61.9955 93.7898C64.7434 93.3877 67.3237 92.5164 69.8706 91.5781C73.2217 90.3047 76.3047 88.4951 79.1867 86.3168C81.6665 84.4402 83.8782 82.2955 85.8219 79.9162C88.2682 76.9338 90.3793 73.7167 91.9209 70.131C93.1273 67.3831 93.9986 64.5346 94.5347 61.6192C95.2049 58.067 95.2385 54.4478 95.1044 50.8621C94.9369 47.1424 94.0991 43.5567 92.8257 40.1386C91.5522 36.687 89.7426 33.4364 87.5644 30.4204C86.2575 28.6108 84.716 27.0023 83.208 25.3937C81.1638 23.249 78.818 21.3724 76.2712 19.7974C73.3222 17.9878 70.1722 16.5803 66.9216 15.3739C62.5317 13.7654 57.9406 13.3968 53.3161 13.4973C47.9208 13.5978 42.6931 14.6702 37.8005 16.9489C33.7121 18.8591 29.9254 21.2719 26.6078 24.3884C24.5971 26.265 22.7205 28.2422 21.179 30.4874C18.9673 33.738 17.2582 37.2231 15.8842 40.9429C13.6055 47.2094 13.8066 53.6771 13.639 60.1112C13.4379 67.249 13.6055 74.3869 13.4714 81.5248C13.3374 87.9589 13.3709 94.393 13.3709 100.861C13.3709 106.424 13.3709 111.953 13.3709 117.516C13.3709 118.521 12.9353 118.756 12.064 118.756C8.44479 118.722 4.8591 118.689 1.23991 118.756C0.301599 118.756 0.0670211 118.454 0.0670211 117.549C0.0670211 110.579 0.0670216 103.609 0.0335106 96.6383C0.0335106 92.5499 0.0335106 88.4616 0.0335106 84.3397L0 84.2727Z" fill="white"/>
<path d="M40.8164 80.4859C40.8164 89.2993 40.8164 98.0792 40.8164 106.893C40.8164 107.898 40.5818 108.233 39.543 108.233C35.3206 108.2 31.0982 108.2 26.8758 108.233C26.0045 108.233 25.8705 107.831 25.8705 107.127C25.8705 102.067 25.8035 97.0069 25.8035 91.9132C25.8035 86.92 25.8035 81.9604 25.8705 76.9673C25.9375 69.6283 25.904 62.2894 26.1051 54.9505C26.2056 51.3313 26.4067 47.6451 27.7806 44.2269C29.0205 41.0769 30.6961 38.1279 32.9078 35.5476C34.952 33.1683 37.4318 31.2246 40.1462 29.7166C43.4973 27.84 47.083 26.5666 50.9368 26.0974C55.1592 25.5613 59.2475 26.0974 63.2688 27.3709C69.5354 29.3145 74.5286 33.1013 78.0472 38.463C82.1021 44.6291 83.6771 51.4653 82.3366 58.9383C81.767 62.1218 80.6946 65.1043 79.1866 67.8857C77.6786 70.6672 75.5339 73.0464 73.1546 75.1912C71.1775 76.9337 69.0663 78.4082 66.6535 79.4806C63.671 80.7875 60.655 81.9269 57.3709 81.9939C55.2597 82.0274 55.2262 82.0609 55.2262 79.8827C55.2262 76.23 55.2262 72.5773 55.1927 68.9246C55.1927 67.9193 55.5613 67.5841 56.4996 67.4501C60.722 66.8804 63.805 64.6352 66.0168 61.016C68.6641 56.626 68.7312 52.0685 66.4189 47.6451C63.738 42.5179 57.773 39.6024 51.7745 40.8423C46.7144 41.8812 43.2292 44.8636 41.6207 49.6892C40.8164 52.102 40.8834 54.7159 40.8834 57.2627C40.8834 65.0038 40.8834 72.7449 40.8834 80.4859H40.8164Z" fill="white"/>
<path d="M195.738 78.8104C195.738 73.5491 195.738 68.2879 195.738 62.9932C195.738 62.2894 195.939 61.8203 196.743 61.8203C202.574 61.8203 208.405 61.4181 214.236 62.0884C217.252 62.457 219.833 63.7304 221.073 66.6458C222.078 69.0251 222.581 71.6055 222.145 74.2529C221.776 76.3306 221.441 78.4083 220.034 80.1508C217.956 82.6977 215.074 83.3679 212.058 83.5689C209.545 83.7365 207.031 83.7365 204.518 83.7365C203.446 83.7365 203.01 84.0381 203.044 85.1775C203.144 88.4281 203.044 91.6451 203.111 94.8957C203.111 95.5994 202.876 95.834 202.206 95.834C200.497 95.834 198.788 95.834 197.112 95.901C196.107 95.9345 195.772 95.5324 195.805 94.5606C195.839 89.9696 195.805 85.4121 195.805 80.8211C195.805 80.1173 195.805 79.4471 195.805 78.7434L195.738 78.8104ZM203.044 72.4768C203.044 72.4768 203.077 72.4768 203.111 72.4768C203.111 73.7167 203.111 74.9901 203.111 76.23C203.111 77.0343 203.412 77.3359 204.183 77.3024C206.529 77.3024 208.875 77.3694 211.22 77.2018C213.533 77.0678 214.638 75.6938 214.638 73.3481C214.638 72.5773 214.605 71.8066 214.571 71.0358C214.504 69.6954 213.834 68.623 212.527 68.2209C209.645 67.3496 206.663 67.8858 203.747 67.8523C203.111 67.8523 203.077 68.422 203.077 68.9246C203.077 70.0975 203.077 71.2704 203.077 72.4433L203.044 72.4768Z" fill="white"/>
<path d="M129.889 33.7045C129.889 28.8119 129.889 23.8858 129.889 18.9931C129.889 17.3176 129.889 17.2841 131.564 17.2841C136.658 17.2841 141.785 17.1165 146.879 17.5186C149.593 17.7532 152.073 18.4905 153.615 20.9368C154.587 22.5118 155.29 24.2544 155.19 26.198C155.123 27.6055 155.29 29.0129 155.056 30.4539C154.251 35.5811 150.498 38.0609 145.773 38.2285C143.293 38.329 140.814 38.2955 138.367 38.2285C137.161 38.195 136.792 38.6641 136.826 39.77C136.826 42.8195 136.792 45.8355 136.826 48.885C136.826 49.8233 136.524 50.0579 135.619 49.9909C134.044 49.8903 132.469 49.9239 130.894 49.9909C130.157 49.9909 129.889 49.7898 129.922 49.0526C129.922 43.9589 129.922 38.8317 129.922 33.738C129.922 33.738 129.922 33.738 129.889 33.738V33.7045ZM136.759 27.706C136.759 27.706 136.759 27.706 136.792 27.706C136.792 28.8454 136.859 29.9848 136.792 31.0906C136.725 32.23 137.228 32.4646 138.233 32.4311C139.875 32.3641 141.551 32.3305 143.226 32.3976C147.281 32.5316 148.789 29.6161 148.085 26.265C147.817 24.9246 146.946 23.8522 145.505 23.4836C142.824 22.8469 140.11 23.2826 137.395 23.2155C136.759 23.2155 136.759 23.7182 136.759 24.1873C136.759 25.3602 136.759 26.5331 136.759 27.706Z" fill="white"/>
<path d="M184.244 42.8195C184.244 37.6253 184.244 32.4646 184.244 27.2704C184.244 26.4661 184.478 26.064 185.35 26.0975C186.657 26.131 187.93 26.0975 189.237 26.0975C189.941 26.0975 190.309 26.265 190.242 27.0358C190.242 27.2704 190.242 27.572 190.477 27.6725C190.712 27.7395 190.913 27.572 191.114 27.4044C192.186 26.3991 193.493 25.7959 194.9 25.6618C196.71 25.4943 198.553 25.4608 200.363 25.6618C203.379 25.9969 205.926 28.1417 206.797 31.3252C207.601 34.2072 207.802 37.0556 207.668 39.9711C207.568 42.6184 207.098 45.1988 205.724 47.4775C205.121 48.4494 204.216 49.2536 203.144 49.7228C199.223 51.4319 195.303 51.4654 191.516 49.3206C190.745 48.885 190.611 49.1531 190.611 49.8568C190.611 52.5377 190.611 55.2186 190.645 57.866C190.645 59.508 190.577 59.575 188.969 59.5415C187.763 59.5415 186.523 59.4745 185.316 59.5415C184.445 59.575 184.177 59.1729 184.21 58.4021C184.21 54.984 184.21 51.5994 184.21 48.1813C184.21 46.4052 184.21 44.6291 184.21 42.8195H184.244ZM200.932 38.2955C200.932 37.1561 200.932 36.1843 200.932 35.2125C200.932 34.5758 200.698 34.0396 200.43 33.5034C199.592 31.8279 198.117 31.2247 196.375 30.9901C192.99 30.5209 190.376 32.7662 190.477 36.1843C190.51 37.7258 190.544 39.2673 190.577 40.7753C190.645 42.5514 192.052 44.9642 194.331 45.1653C195.403 45.2658 196.408 45.2323 197.447 45.0648C199.19 44.8302 200.899 42.9536 200.899 41.1775C200.899 40.1721 200.798 39.1668 200.899 38.329L200.932 38.2955Z" fill="white"/>
<path d="M240.14 85.345C237.694 85.345 235.281 85.345 232.835 85.345C232.031 85.345 231.662 85.6131 231.796 86.4173C231.897 87.1881 231.964 87.9589 232.232 88.6626C232.768 90.0701 233.84 90.8073 235.382 90.9078C236.689 90.9749 237.962 90.8743 239.236 90.6398C239.805 90.5392 240.408 90.2376 240.61 89.735C240.978 88.7966 241.615 88.7296 242.453 88.7631C243.961 88.7631 245.469 88.7966 246.943 88.7296C248.083 88.6626 248.183 89.1317 247.982 90.1036C247.01 94.6276 243.693 96.1691 239.638 96.5712C237.661 96.7723 235.65 96.7388 233.673 96.5712C229.249 96.1356 225.932 93.4212 225.127 88.6961C224.658 85.9147 224.491 83.1333 224.893 80.3519C225.127 78.5758 225.228 76.7662 226.166 75.1241C227.54 72.6778 229.718 71.3709 232.366 70.7342C235.114 70.0304 237.996 70.064 240.677 70.5666C244.329 71.2368 246.507 72.8789 247.714 77.2353C248.351 79.4806 248.619 81.7593 248.619 84.0716C248.619 85.0434 248.384 85.4455 247.312 85.412C244.932 85.345 242.52 85.412 240.14 85.412C240.14 85.412 240.14 85.412 240.14 85.4455V85.345ZM236.588 80.955C236.588 80.955 236.588 80.9886 236.588 81.0221C237.962 81.0221 239.336 81.0221 240.71 81.0221C241.548 81.0221 241.782 80.687 241.682 79.9162C241.447 77.9726 239.939 76.1965 237.929 75.8949C234.611 75.3587 232.064 76.7327 231.796 79.9832C231.729 80.7205 231.897 81.0221 232.701 80.955C233.974 80.888 235.281 80.955 236.588 80.955Z" fill="white"/>
<path d="M224.893 40.0381C222.647 40.0381 220.436 40.0381 218.19 40.0381C217.252 40.0381 216.951 40.4067 217.152 41.278C217.252 41.7807 217.319 42.3169 217.453 42.8195C217.922 44.6961 219.765 45.3999 221.508 45.3328C222.983 45.2658 224.926 45.2323 225.831 43.8584C226.267 43.2217 226.736 43.0541 227.44 43.0876C228.847 43.0876 230.288 43.1211 231.695 43.0876C232.868 43.0206 232.935 43.5903 232.701 44.4951C231.863 47.8462 229.651 49.7563 226.401 50.46C222.748 51.2308 219.062 51.2978 215.543 49.7898C212.661 48.5499 211.153 46.1036 210.65 43.1881C210.081 40.0381 210.215 36.821 210.617 33.6375C211.019 30.521 212.896 27.639 216.146 26.3991C219.43 25.1592 222.748 25.3602 225.999 25.8294C229.584 26.3321 231.595 28.9459 232.533 32.4311C233.136 34.7098 232.969 37.0221 233.002 39.3009C233.002 40.1051 232.433 40.0716 231.93 40.0716C229.584 40.0716 227.238 40.0716 224.893 40.0716V40.0381ZM221.743 35.6817C222.983 35.6817 224.256 35.6817 225.496 35.6817C225.999 35.6817 226.401 35.5476 226.367 34.9444C226.3 34.0731 226.233 33.2018 225.63 32.4646C224.122 30.6215 222.145 30.722 220.101 31.0906C218.257 31.4258 217.286 33.0008 217.185 34.7098C217.152 35.4471 217.386 35.7487 218.123 35.7487C219.33 35.7487 220.536 35.7487 221.743 35.7487V35.6817Z" fill="white"/>
<path d="M309.542 50.4265C308.939 50.4265 308.335 50.4265 307.732 50.4265C307.33 50.4265 306.794 50.4265 306.593 50.0914C306.023 49.086 305.52 49.3541 304.582 49.7563C301.13 51.2308 297.578 51.5324 294.026 49.8903C292.753 49.3206 291.881 48.2818 291.58 47.0754C291.01 44.5956 290.742 42.0487 292.25 39.7029C293.624 37.5247 295.735 36.7205 298.081 36.2848C300.427 35.8492 302.772 35.4805 305.118 35.1119C305.856 35.0114 305.99 34.5757 305.99 33.9055C305.99 32.8332 305.822 31.8614 304.649 31.4592C303.51 31.0571 302.303 30.8895 301.063 30.9566C299.656 31.0236 298.584 31.5933 298.181 33.0342C298.047 33.5704 297.612 33.7045 297.143 33.7045C295.769 33.7045 294.395 33.7045 293.021 33.7045C292.183 33.7045 291.881 33.4029 291.982 32.5316C292.351 28.2757 294.629 26.399 298.885 25.7288C301.466 25.3267 304.146 25.2597 306.727 25.8964C308.402 26.2985 310.011 26.8682 311.217 28.2422C311.888 29.0129 312.189 29.9177 312.357 30.856C312.826 33.7715 312.625 36.754 312.725 39.7029C312.826 42.5849 312.725 45.4668 312.725 48.3153C312.725 50.3595 312.591 50.46 310.614 50.4265C310.245 50.4265 309.877 50.4265 309.508 50.393C309.508 50.393 309.508 50.4265 309.508 50.46L309.542 50.4265ZM301.399 46.0365C305.051 46.1706 306.425 43.1881 305.956 40.1721C305.889 39.7365 305.721 39.3343 305.185 39.4349C303.376 39.77 301.533 40.0045 299.756 40.5407C298.316 40.9764 297.578 42.3168 297.746 43.5902C297.947 45.1652 298.684 45.7684 300.561 46.003C300.829 46.003 301.13 46.0365 301.399 46.0365Z" fill="white"/>
<path d="M262.894 40.0381C262.459 40.0381 262.023 40.0381 261.621 40.0381C259.979 40.0716 258.102 39.6694 256.527 40.1721C254.081 40.9429 255.622 44.2605 257.231 45.0312C259.476 46.0701 262.727 45.4668 264.168 43.4227C264.436 43.054 264.804 43.0876 265.14 43.0876C266.715 43.0876 268.29 43.1211 269.898 43.0876C270.903 43.0876 270.97 43.5567 270.769 44.3275C269.999 47.0419 268.625 49.1531 265.676 50.0579C261.621 51.2978 257.633 51.3648 253.679 49.8568C250.864 48.7844 248.987 45.5674 248.652 42.7189C248.317 39.837 248.317 36.9885 248.652 34.1066C248.887 31.9619 249.557 30.0518 251.065 28.4767C252.975 26.4996 255.455 25.8964 258.035 25.6283C259.108 25.5278 260.213 25.6283 261.319 25.6283C266.078 25.4943 269.429 28.0411 270.602 32.6656C271.172 34.8774 271.004 37.0891 271.037 39.3008C271.037 39.971 270.702 40.1051 270.133 40.0716C267.753 40.0716 265.341 40.0716 262.961 40.1051L262.894 40.0381ZM259.778 35.9497C260.984 35.9832 262.224 35.9497 263.43 36.0167C264.402 36.0838 264.469 35.6481 264.436 34.8773C264.201 31.4257 261.152 30.4204 258.337 31.0571C256.326 31.4927 255.388 32.8332 255.153 34.8103C255.053 35.5811 255.187 36.0502 256.159 35.9832C257.365 35.9162 258.571 35.9832 259.811 35.9832L259.778 35.9497Z" fill="white"/>
<path d="M178.882 40.9764C178.882 43.5567 178.849 46.1706 178.882 48.751C178.882 49.8568 178.513 50.2925 177.408 50.259C176.302 50.1919 175.229 50.259 174.123 50.259C173.42 50.259 172.75 50.259 172.448 49.3877C172.213 48.7174 171.744 49.0526 171.376 49.2536C167.89 51.1302 164.372 51.4318 160.652 49.9238C158.574 49.0861 157.804 47.377 157.468 45.3999C157.066 42.9871 157.435 40.6078 159.043 38.6641C160.116 37.3572 161.657 36.5529 163.266 36.3183C165.779 35.9162 168.226 35.246 170.772 35.0449C171.376 35.0114 172.079 34.9444 172.146 34.1401C172.213 33.2018 172.213 32.1965 171.443 31.5598C170.236 30.588 166.919 30.5544 165.612 31.2247C164.975 31.5598 164.74 32.163 164.439 32.6991C164.137 33.2353 163.802 33.5034 163.232 33.5034C161.892 33.5034 160.551 33.5034 159.211 33.5034C158.407 33.5034 158.005 33.2353 158.105 32.364C158.44 29.7837 159.58 27.572 162.059 26.4661C164.874 25.2262 167.823 25.4272 170.772 25.5278C173.051 25.5948 175.162 26.131 176.938 27.639C177.81 28.3762 178.446 29.214 178.58 30.4539C178.949 33.9726 178.782 37.4912 178.849 41.0099L178.882 40.9764ZM172.213 41.1439C172.213 39.1668 172.046 39.0663 170.102 39.4684C169.03 39.703 167.991 40.0046 166.919 40.1386C165.645 40.2727 164.841 40.9429 164.204 41.9147C163.534 42.92 164.037 44.7631 165.075 45.3328C168.494 47.1759 172.213 44.9977 172.213 41.1439Z" fill="white"/>
<path d="M294.361 83.569C294.361 87.3892 294.361 91.176 294.361 94.9962C294.361 95.901 294.127 96.2362 293.188 96.1691C291.814 96.1021 290.44 96.1021 289.067 96.1356C288.296 96.1356 287.793 95.9346 287.86 95.0633C287.927 94.0915 287.257 94.4601 286.955 94.7282C285.213 96.4372 283.068 96.7053 280.789 96.6048C279.114 96.5042 277.405 96.8058 275.729 96.1356C273.383 95.1973 272.21 93.5888 271.842 91.0084C270.937 84.7083 271.138 78.4083 271.574 72.1082C271.641 71.2034 271.976 70.9353 272.847 70.9688C274.255 71.0358 275.696 71.0358 277.103 70.9688C278.008 70.9353 278.276 71.2704 278.276 72.1752C278.276 77.0678 278.276 81.9939 278.276 86.8866C278.276 90.0031 279.817 91.2765 282.934 91.0754C286.084 90.8744 287.425 88.8637 287.425 86.2163C287.425 81.5248 287.492 76.8332 287.458 72.1082C287.458 71.2704 287.659 70.9688 288.53 71.0358C290.105 71.1029 291.68 71.0693 293.255 71.0358C294.06 71.0358 294.294 71.2704 294.261 72.0747C294.227 75.9284 294.261 79.7822 294.261 83.636L294.361 83.569Z" fill="white"/>
<path d="M252.908 83.5689C252.908 79.7151 252.908 75.8614 252.908 72.0411C252.908 71.1698 253.21 70.9017 254.047 70.9353C255.421 71.0023 256.795 71.0358 258.169 70.9353C259.074 70.9017 259.443 71.1363 259.309 72.0746C259.275 72.3092 259.141 72.6778 259.51 72.8119C259.845 72.9124 260.012 72.6108 260.213 72.4097C261.855 70.6001 263.933 70.131 266.279 70.2315C267.083 70.2315 267.452 70.5666 267.418 71.4044C267.385 72.9459 267.385 74.4874 267.418 76.0289C267.418 76.9002 267.117 77.1683 266.279 77.0678C264.67 76.8667 263.129 76.8667 261.855 78.1401C260.817 79.179 260.28 80.4189 260.012 81.8599C259.443 85.0434 259.878 88.2605 259.811 91.444C259.778 92.6839 259.811 93.9573 259.878 95.1973C259.912 96.035 259.51 96.2361 258.772 96.2026C257.197 96.2026 255.622 96.1356 254.047 96.2026C253.076 96.2361 252.908 95.8005 252.908 94.9627C252.908 91.1424 252.908 87.3557 252.908 83.5354H252.941L252.908 83.5689Z" fill="white"/>
<path d="M237.526 33.805C237.526 28.6778 237.526 23.5171 237.526 18.3899C237.526 17.7867 237.694 17.5186 238.364 17.5186C240.073 17.5186 241.749 17.5186 243.458 17.4851C244.128 17.4851 244.262 17.8202 244.262 18.4234C244.262 23.4501 244.262 28.4767 244.262 33.5034C244.262 38.5636 244.262 43.6237 244.262 48.6839C244.262 50.3595 244.262 50.3595 242.587 50.393C241.38 50.393 240.14 50.326 238.934 50.393C237.795 50.46 237.459 49.9909 237.493 48.9185C237.56 44.294 237.526 39.7029 237.56 35.0784C237.56 34.6763 237.56 34.2742 237.56 33.872L237.526 33.805Z" fill="white"/>
<path d="M281.795 28.1081C282.498 27.5384 283.068 27.0022 283.705 26.5666C285.213 25.4607 286.955 25.5278 288.731 25.5948C289.268 25.5948 289.536 25.8294 289.502 26.3991C289.502 28.0746 289.502 29.7166 289.502 31.3922C289.502 32.0289 289.301 32.2635 288.631 32.0959C285.715 31.4257 283.437 32.6321 282.465 35.6481C282.13 36.687 281.895 37.7593 281.929 38.8652C281.962 42.2163 281.929 45.6009 281.996 48.952C281.996 49.9238 281.728 50.3595 280.689 50.2924C279.281 50.2254 277.84 50.2589 276.433 50.2924C275.561 50.2924 275.327 49.9238 275.327 49.1196C275.36 44.6626 275.36 40.2056 275.394 35.7486C275.394 33.0007 275.494 30.2528 275.461 27.5049C275.461 26.4326 275.796 26.0304 276.868 26.0975C277.84 26.1645 278.812 26.131 279.784 26.0975C281.013 26.0975 281.683 26.7565 281.795 28.0746V28.1081Z" fill="white"/>
<path d="M287.592 60.5803C288.597 60.5803 289.603 60.5803 290.641 60.5803C290.876 60.5803 291.178 60.5133 291.312 60.7479C291.446 61.016 291.211 61.1835 291.044 61.3511C289.1 63.2612 287.156 65.1713 285.246 67.115C284.475 67.8857 283.571 67.7852 282.666 67.7852C281.795 67.7852 280.488 68.1873 280.119 67.5841C279.717 66.8804 280.722 66.0091 281.191 65.2048C281.962 63.8309 282.833 62.524 283.571 61.15C283.839 60.6473 284.14 60.5468 284.609 60.5468C285.615 60.5468 286.62 60.5468 287.659 60.5468L287.592 60.5803Z" fill="white"/>
<path d="M159.211 89.0982H156.463C156.229 89.0982 156.027 88.8972 156.027 88.6626V88.1264C156.027 87.7243 155.558 87.5232 155.257 87.8248C154.821 88.227 154.385 88.5621 153.883 88.8302C153.045 89.2323 152.241 89.4669 151.369 89.4669C149.66 89.4669 148.186 88.7631 146.98 87.3892C145.773 86.0152 145.17 84.1051 145.17 81.6253C145.17 79.1455 145.773 77.2018 146.946 75.8949C148.119 74.588 149.627 73.9177 151.436 73.9177C153.246 73.9177 153.95 74.3534 154.989 75.2582C156.028 76.163 155.726 75.3252 155.726 74.9231V69.0586C155.726 68.824 155.927 68.623 156.162 68.623H159.211C159.446 68.623 159.647 68.824 159.647 69.0586V88.6626C159.647 88.8972 159.446 89.0982 159.211 89.0982ZM149.158 81.3237C149.158 82.8987 149.392 84.0716 149.828 84.7753C150.465 85.8142 151.336 86.3168 152.475 86.3168C153.615 86.3168 154.151 85.9482 154.788 85.1775C155.424 84.4067 155.726 83.2673 155.726 81.7258C155.726 80.1843 155.424 78.7768 154.788 78.0396C154.151 77.3023 153.38 76.9002 152.408 76.9002C151.436 76.9002 150.699 77.2688 150.063 78.0061C149.426 78.7433 149.124 79.8492 149.124 81.3237H149.158Z" fill="white"/>
<path d="M172.481 84.3732L175.397 84.4402C175.698 84.4402 175.9 84.7753 175.799 85.0434C175.296 86.3168 174.593 87.6238 173.654 88.294C172.716 88.9642 171.208 89.4333 169.566 89.4333C166.986 89.4333 165.075 88.5956 163.836 86.8865C162.864 85.5461 162.361 83.837 162.361 81.7593C162.361 79.6816 162.998 77.3694 164.305 75.9619C165.612 74.5544 167.22 73.8842 169.197 73.8842C171.175 73.8842 173.152 74.6215 174.425 76.0624C175.631 77.4364 176.235 79.5476 176.268 82.329C176.268 82.5636 176.067 82.7647 175.833 82.7647H166.919C166.65 82.7647 166.449 82.9992 166.483 83.2673C166.583 84.2056 166.885 84.9429 167.388 85.5126C167.991 86.1493 168.762 86.4844 169.666 86.4844C170.571 86.4844 170.806 86.3168 171.208 85.9817C171.61 85.6466 171.845 85.2445 172.079 84.6748C172.314 84.1051 172.314 84.3732 172.515 84.3732H172.481ZM171.878 80.3854C172.146 80.3854 172.347 80.1508 172.314 79.8827C172.213 78.9779 171.945 78.2742 171.476 77.7715C171.007 77.2688 170.236 76.8667 169.432 76.8667C168.628 76.8667 167.857 77.1683 167.321 77.805C166.852 78.3412 166.583 79.0114 166.516 79.8827C166.449 80.754 166.718 80.3518 166.952 80.3518H171.878V80.3854Z" fill="white"/>
<path d="M179.485 89.0982V68.5895H183.406V89.0982H179.485Z" fill="white"/>
</svg>
