<svg width="89" height="98" viewBox="0 0 89 98" fill="none" xmlns="http://www.w3.org/2000/svg">
<path d="M41.7275 8.66211V14.4345L45.8368 12.5032L41.7275 8.66211Z" fill="#8FC36B"/>
<path d="M0 60.2137L11.3679 80.0689L12.5093 74.0859L28.8079 85.2826L32.6206 47.9978C32.6206 47.9978 33.922 40.7226 41.7289 43.7819L57.5476 52.826C57.5476 52.826 64.1213 49.2223 59.2588 43.4428L27.8966 20.937L22.8975 71.7977L14.4058 65.8825L15.9121 58.5394L0.00179933 60.2172L0 60.2137Z" fill="#8FC36B"/>
<path d="M0 60.2136L9.16583 55.0695L24.0929 53.8451L15.9103 58.5358L0 60.2136Z" fill="#6AB42D"/>
<path d="M24.0922 53.8451L23.4433 60.6099L14.4033 65.8807L15.9097 58.5358L24.0922 53.8451Z" fill="#238235"/>
<path d="M23.4433 60.6097H23.9934L22.8951 71.7957L14.4033 65.8805L23.4433 60.6097Z" fill="#6AB42D"/>
<path d="M52.2359 28.4388V29.2938L42.8076 22.529L52.0651 18.1506L52.2359 28.4388Z" fill="#238235"/>
<path d="M82.78 72.2707L84.4229 52.4155L50.0425 67.787C46.1058 69.5469 41.6532 66.6786 41.6676 62.3913V62.0022L41.7287 43.7801C33.9201 40.7208 32.6222 47.9943 32.6222 47.9943L28.8096 85.2772L75.8305 64.1547L75.1924 74.7178L67.4089 77.0631L77.132 89.8465L88.4998 70.3323L82.7818 72.2689L82.78 72.2707Z" fill="#238235"/>
<path d="M84.4217 52.417L50.0413 67.7885C46.1046 69.5484 41.652 66.6801 41.6664 62.3928V62.0037L57.6433 52.7883C61.4991 50.4108 62.3547 46.2966 58.7865 43.0945L27.8916 20.9368L45.835 12.5049L41.7257 8.66382H64.4956L57.8176 23.25L52.0654 18.1505L42.8205 22.536L84.4199 52.4206L84.4217 52.417Z" fill="#6AB42D"/>
<path d="M52.2354 29.2937L57.993 33.431L57.8186 23.2464L52.0664 18.147L52.2354 29.2937Z" fill="#8FC36B"/>
<path d="M57.9937 33.4311L64.5081 18.9628L64.4955 8.66211L57.8193 23.2465L57.9937 33.4311Z" fill="#238235"/>
<path d="M77.1298 89.85L68.4331 84.8166L59.0947 71.6744L67.4049 77.0648L77.1298 89.85Z" fill="#8FC36B"/>
<path d="M59.0947 71.6744L65.3898 68.8472L75.1884 74.7195L67.4049 77.0648L59.0947 71.6744Z" fill="#6AB42D"/>
<path d="M65.3906 68.847L75.8291 64.1581L75.1892 74.7193L65.3906 68.847Z" fill="#8FC36B"/>
</svg>
