<svg width="328" height="57" viewBox="0 0 328 57" fill="none" xmlns="http://www.w3.org/2000/svg">
<g clip-path="url(#clip0_102_150)">
<path d="M174.623 40.4789L161.917 10.019H149.063V46.4288H157.397L157.118 17.6034L169.133 46.4288H179.753L191.768 17.6951L191.487 46.4288H199.823V10.019H187.375L174.623 40.4789Z" fill="white"/>
<path d="M213.239 10.019H204.705V46.4288H213.239V10.019Z" fill="white"/>
<path d="M140.061 27.1711C137.136 25.5348 132.436 24.7041 126.094 24.7041H117.862C114.519 24.7041 112.175 24.3786 110.894 23.7367C109.735 23.1559 109.17 22.2209 109.17 20.8795C109.17 19.7845 109.17 16.4508 118.166 16.4508H126.398C129.64 16.4508 132.069 17.0064 133.615 18.0997C134.98 19.0671 135.708 20.3401 135.831 21.98H144.118C143.997 17.7526 142.388 14.5502 139.317 12.4626C136.196 10.3391 131.389 9.26379 125.026 9.26379H119.538C116.772 9.26379 114.282 9.45259 112.139 9.8266C109.972 10.2042 108.017 10.8335 106.325 11.6948C104.587 12.5831 103.231 13.8184 102.298 15.3666C101.364 16.9111 100.89 18.8009 100.89 20.982C100.89 24.8803 102.341 27.7123 105.2 29.3972C107.996 31.0442 112.585 31.8444 119.23 31.8444H128.124C131.091 31.8444 133.227 32.177 134.469 32.8297C135.604 33.4267 136.154 34.3563 136.154 35.6689C136.154 37.0966 135.563 38.1359 134.345 38.848C133.04 39.6104 130.81 39.997 127.717 39.997H118.47C112.151 39.997 108.943 38.1845 108.681 34.466H100.393C100.512 38.6951 102.123 41.8976 105.194 43.987C108.316 46.1087 113.124 47.1858 119.486 47.1858H125.991C138.364 47.1858 144.639 43.2605 144.639 35.5197C144.639 31.6825 143.098 28.8757 140.061 27.1747" fill="white"/>
<path d="M235.003 38.1827H233.291V46.4216H235.003V38.1827Z" fill="white"/>
<path d="M231.024 13.457H232.95C234.417 13.457 235.483 13.644 236.149 14.0162C236.814 14.3884 237.149 14.9997 237.149 15.8466C237.149 17.5728 235.741 18.4359 232.927 18.4359H231.404C229.936 18.4359 228.848 18.195 228.14 17.7113C227.43 17.2294 227.076 16.485 227.076 15.4816H228.728C228.728 16.5173 229.541 17.0352 231.166 17.0352H233.331C234.085 17.0352 234.626 16.9381 234.955 16.7457C235.284 16.5533 235.448 16.2656 235.448 15.8808C235.448 15.5194 235.291 15.2569 234.978 15.0914C234.665 14.926 234.147 14.8451 233.426 14.8451H231.346C229.832 14.8451 228.762 14.6599 228.135 14.2913C227.509 13.9227 227.194 13.3059 227.194 12.4428C227.194 11.9555 227.297 11.542 227.503 11.2003C227.708 10.8587 228.005 10.5908 228.39 10.3948C228.775 10.1988 229.213 10.0567 229.71 9.97224C230.206 9.88593 230.774 9.84277 231.416 9.84277H232.7C234.167 9.84277 235.255 10.0837 235.964 10.5674C236.674 11.0493 237.028 11.7937 237.028 12.7971H235.376C235.376 12.3116 235.181 11.9304 234.793 11.6553C234.405 11.3802 233.815 11.2435 233.022 11.2435H231.096C229.598 11.2435 228.848 11.6355 228.848 12.4213C228.848 12.7899 229.008 13.0542 229.33 13.216C229.652 13.376 230.217 13.457 231.024 13.457Z" fill="white"/>
<path d="M243.444 18.4359H242.374C240.93 18.4359 239.887 18.1176 239.24 17.4829C238.594 16.8464 238.271 15.7333 238.271 14.1402V10.0208H239.982V14.1402C239.982 15.1921 240.16 15.9221 240.518 16.3285C240.874 16.7367 241.512 16.9399 242.433 16.9399H243.397C244.316 16.9399 244.954 16.7367 245.312 16.3285C245.668 15.9203 245.848 15.1903 245.848 14.1402V10.0208H247.549V14.1402C247.549 15.7333 247.225 16.8481 246.58 17.4829C245.934 18.1194 244.889 18.4359 243.445 18.4359" fill="white"/>
<path d="M252.643 13.457H254.569C256.036 13.457 257.102 13.644 257.767 14.0162C258.433 14.3884 258.765 14.9997 258.765 15.8466C258.765 17.5728 257.357 18.4359 254.543 18.4359H253.02C251.553 18.4359 250.465 18.195 249.757 17.7113C249.047 17.2294 248.692 16.485 248.692 15.4816H250.345C250.345 16.5173 251.158 17.0352 252.783 17.0352H254.948C255.701 17.0352 256.243 16.9381 256.572 16.7457C256.901 16.5533 257.064 16.2656 257.064 15.8808C257.064 15.5194 256.908 15.2569 256.595 15.0914C256.282 14.926 255.764 14.8451 255.043 14.8451H252.963C251.449 14.8451 250.377 14.6599 249.751 14.2913C249.126 13.9227 248.811 13.3059 248.811 12.4428C248.811 11.9555 248.913 11.542 249.12 11.2003C249.327 10.8587 249.622 10.5908 250.007 10.3948C250.392 10.1988 250.832 10.0567 251.327 9.97224C251.823 9.88593 252.391 9.84277 253.033 9.84277H254.317C255.784 9.84277 256.872 10.0837 257.58 10.5674C258.291 11.0493 258.645 11.7937 258.645 12.7971H256.992C256.992 12.3116 256.798 11.9304 256.41 11.6553C256.021 11.3802 255.432 11.2435 254.639 11.2435H252.713C251.215 11.2435 250.465 11.6355 250.465 12.4213C250.465 12.7899 250.625 13.0542 250.947 13.216C251.267 13.376 251.834 13.457 252.641 13.457" fill="white"/>
<path d="M259.458 10.0209H267.188V11.3748H264.179V18.2598H262.468V11.3748H259.458V10.0209Z" fill="white"/>
<path d="M271.136 11.328L269.221 15.5661H273.621L271.791 11.328H271.136ZM276.583 18.2615H274.786L274.18 16.8608H268.639L268.008 18.2615H266.224L269.993 10.0226H272.931L276.581 18.2615H276.583Z" fill="white"/>
<path d="M279.156 10.0209H277.444V18.2598H279.156V10.0209Z" fill="white"/>
<path d="M288.238 16.8483L288.166 10.0209H289.88V18.2598H287.429L282.317 11.4342L282.387 18.2598H280.675V10.0209H283.124L288.238 16.8483Z" fill="white"/>
<path d="M295.659 11.328L293.744 15.5661H298.144L296.313 11.328H295.659ZM301.105 18.2615H299.309L298.703 16.8608H293.161L292.53 18.2615H290.746L294.515 10.0226H297.453L301.103 18.2615H301.105Z" fill="white"/>
<path d="M303.68 16.8824H307.711C308.226 16.8824 308.598 16.7979 308.823 16.6289C309.049 16.4599 309.163 16.165 309.163 15.7406C309.163 15.3415 309.046 15.0699 308.812 14.9279C308.578 14.7858 308.165 14.7157 307.569 14.7157H303.68V16.8806V16.8824ZM307.462 11.3856H303.68V13.5506H307.402C307.972 13.5506 308.37 13.484 308.591 13.351C308.812 13.2179 308.923 12.9428 308.923 12.5274C308.923 12.0887 308.81 11.7884 308.584 11.6266C308.357 11.4665 307.983 11.3856 307.46 11.3856M309.648 14.117C310.481 14.4154 310.896 14.9962 310.896 15.8593C310.896 16.7224 310.671 17.3284 310.223 17.7006C309.776 18.0728 309.056 18.2598 308.066 18.2598H301.965V10.0209H307.827C308.817 10.0209 309.537 10.2061 309.984 10.5747C310.432 10.9433 310.657 11.56 310.657 12.4231C310.657 13.2862 310.321 13.8364 309.646 14.1188" fill="white"/>
<path d="M312.133 10.0209H313.845V16.7656H318.639V18.2598H312.133V10.0209Z" fill="white"/>
<path d="M327.606 10.0209V11.5151H321.388V13.493H326.536V14.7876H321.388V16.7656H327.724V18.2598H319.674V10.0209H327.606Z" fill="white"/>
<path d="M238.885 24.1018V32.3407H237.22L237.292 25.0314L234.236 32.3407H231.939L228.884 25.0081L228.955 32.3407H227.291V24.1018H230.06L233.13 31.4578L236.21 24.1018H238.885Z" fill="white"/>
<path d="M244.665 25.4072L242.75 29.6454H247.15L245.319 25.4072H244.665ZM250.111 32.3407H248.315L247.709 30.94H242.167L241.536 32.3407H239.752L243.521 24.1018H246.459L250.109 32.3407H250.111Z" fill="white"/>
<path d="M249.172 24.1018H256.902V25.4558H253.892V32.3407H252.181V25.4558H249.172V24.1018Z" fill="white"/>
<path d="M265.814 24.1018V25.596H259.596V27.5739H264.744V28.8686H259.596V30.8465H265.934V32.3407H257.882V24.1018H265.814Z" fill="white"/>
<path d="M272.699 25.5618H268.809V28.2679H272.544C273.193 28.2679 273.636 28.1834 273.869 28.0144C274.103 27.8454 274.22 27.5145 274.22 27.02C274.22 26.4626 274.105 26.0814 273.875 25.8728C273.645 25.6643 273.253 25.5618 272.697 25.5618M274.434 28.9044C275.004 28.9908 275.419 29.1688 275.676 29.4403C275.934 29.7118 276.063 30.1218 276.063 30.6702V32.3406H274.339V30.7403C274.339 30.3088 274.225 30.0193 274.001 29.87C273.774 29.7208 273.368 29.6471 272.781 29.6471H268.809V32.3424H267.098V24.1035H273.114C274.121 24.1035 274.844 24.3103 275.284 24.7221C275.725 25.1338 275.944 25.8459 275.944 26.8582C275.944 27.4857 275.824 27.9569 275.581 28.2697C275.338 28.5826 274.957 28.7966 274.434 28.9062" fill="white"/>
<path d="M279.102 24.1018H277.39V32.3407H279.102V24.1018Z" fill="white"/>
<path d="M284.876 25.4072L282.961 29.6454H287.361L285.53 25.4072H284.876ZM290.322 32.3407H288.526L287.92 30.94H282.378L281.747 32.3407H279.963L283.732 24.1018H286.67L290.32 32.3407H290.322Z" fill="white"/>
<path d="M291.183 24.1018H292.897V30.8465H297.689V32.3407H291.183V24.1018Z" fill="white"/>
<path d="M302.479 27.538H304.405C305.872 27.538 306.938 27.725 307.604 28.0972C308.269 28.4694 308.603 29.0808 308.603 29.9277C308.603 31.6538 307.195 32.5169 304.381 32.5169H302.858C301.391 32.5169 300.303 32.276 299.595 31.7923C298.885 31.3104 298.53 30.566 298.53 29.5626H300.183C300.183 30.5984 300.996 31.1162 302.621 31.1162H304.786C305.539 31.1162 306.081 31.0191 306.41 30.8267C306.739 30.6343 306.904 30.3466 306.904 29.9618C306.904 29.6004 306.748 29.3379 306.435 29.1725C306.122 29.007 305.604 28.9261 304.883 28.9261H302.803C301.289 28.9261 300.217 28.7409 299.591 28.3723C298.965 28.0037 298.653 27.3869 298.653 26.5239C298.653 26.0384 298.755 25.623 298.962 25.2814C299.169 24.9397 299.464 24.6718 299.848 24.4758C300.233 24.2798 300.674 24.1378 301.168 24.0515C301.664 23.9652 302.233 23.922 302.875 23.922H304.158C305.626 23.922 306.713 24.1629 307.422 24.6466C308.132 25.1303 308.486 25.8729 308.486 26.8781H306.834C306.834 26.3926 306.64 26.0114 306.251 25.7363C305.863 25.4612 305.271 25.3245 304.48 25.3245H302.553C301.055 25.3245 300.305 25.7165 300.305 26.5023C300.305 26.8709 300.465 27.1352 300.787 27.297C301.109 27.4589 301.673 27.538 302.481 27.538" fill="white"/>
<path d="M317.615 31.1863H318.139C318.75 31.1863 319.234 31.0532 319.59 30.7871L317.116 29.2444C316.688 28.9854 316.319 28.7499 316.01 28.5377C315.614 28.7571 315.415 29.1293 315.415 29.6561C315.415 30.6774 316.149 31.1863 317.615 31.1863ZM321.086 30.1272L323.132 31.3751L322.323 32.5061L320.634 31.447C320.111 32.1609 319.227 32.5187 317.982 32.5187H317.292C316.206 32.5187 315.359 32.2849 314.753 31.8174C314.147 31.3499 313.843 30.7296 313.843 29.9528C313.843 28.9567 314.354 28.3291 315.377 28.0702C314.798 27.5757 314.508 27.0183 314.508 26.3998C314.508 25.6302 314.814 25.026 315.424 24.5873C316.035 24.1485 316.891 23.9274 317.991 23.9274C319.092 23.9274 320.003 24.1665 320.625 24.6448C321.248 25.1231 321.559 25.8298 321.559 26.763H319.989C319.989 26.3009 319.823 25.9358 319.494 25.6679C319.165 25.4018 318.664 25.2688 317.989 25.2688C317.315 25.2688 316.86 25.3748 316.551 25.587C316.242 25.7992 316.087 26.0815 316.087 26.4339C316.087 26.6857 316.168 26.905 316.332 27.0938C316.493 27.2826 316.794 27.5056 317.229 27.7645L320.178 29.577C320.185 29.5303 320.19 29.4637 320.19 29.3774V27.8239H322.807V29.1778H321.095V29.8251C321.095 29.9582 321.091 30.0607 321.082 30.1308" fill="white"/>
<path d="M238.085 45.0083L238.013 38.1827H239.725V46.4216H237.276L232.162 39.5942L232.234 46.4216H230.521V38.1827H232.972L238.085 45.0083Z" fill="white"/>
<path d="M248.815 45.0083L248.744 38.1827H250.456V46.4216H248.007L242.893 39.5942L242.965 46.4216H241.252V38.1827H243.703L248.815 45.0083Z" fill="white"/>
<path d="M256.009 45.1019H257.352C258.359 45.1019 259.044 44.9005 259.409 44.4959C259.774 44.0913 259.956 43.3595 259.956 42.3004C259.956 41.2413 259.774 40.5095 259.409 40.1049C259.044 39.7004 258.359 39.499 257.352 39.499H256.009C255.009 39.499 254.326 39.7004 253.957 40.1049C253.589 40.5095 253.403 41.2413 253.403 42.3004C253.403 43.3595 253.587 44.0913 253.957 44.4959C254.326 44.9005 255.009 45.1019 256.009 45.1019ZM256.009 38.0048H257.352C258.875 38.0048 259.966 38.3212 260.628 38.9524C261.29 39.5835 261.621 40.7001 261.621 42.3004C261.621 43.9007 261.29 45.0174 260.628 45.6485C259.966 46.2796 258.875 46.5961 257.352 46.5961H256.009C254.486 46.5961 253.394 46.2796 252.733 45.6485C252.071 45.0174 251.74 43.9007 251.74 42.3004C251.74 40.7001 252.071 39.5835 252.733 38.9524C253.394 38.3212 254.486 38.0048 256.009 38.0048Z" fill="white"/>
<path d="M266.733 45.2565L269.705 38.1827H271.489L267.957 46.4216H265.508L261.975 38.1827H263.759L266.733 45.2565Z" fill="white"/>
<path d="M275.436 39.4882L273.521 43.7263H277.921L276.09 39.4882H275.436ZM280.882 46.4216H279.086L278.48 45.0209H272.938L272.307 46.4216H270.523L274.292 38.1827H277.23L280.88 46.4216H280.882Z" fill="white"/>
<path d="M279.943 38.1827H287.673V39.5349H284.665V46.4216H282.952V39.5349H279.943V38.1827Z" fill="white"/>
<path d="M290.367 38.1827H288.655V46.4216H290.367V38.1827Z" fill="white"/>
<path d="M295.927 45.1019H297.27C298.277 45.1019 298.962 44.9005 299.327 44.4959C299.692 44.0913 299.874 43.3595 299.874 42.3004C299.874 41.2413 299.692 40.5095 299.327 40.1049C298.962 39.7004 298.277 39.499 297.27 39.499H295.927C294.927 39.499 294.244 39.7004 293.875 40.1049C293.506 40.5095 293.321 41.2413 293.321 42.3004C293.321 43.3595 293.505 44.0913 293.875 44.4959C294.244 44.9005 294.927 45.1019 295.927 45.1019ZM295.927 38.0048H297.27C298.791 38.0048 299.884 38.3212 300.546 38.9524C301.208 39.5835 301.539 40.7001 301.539 42.3004C301.539 43.9007 301.208 45.0174 300.546 45.6485C299.884 46.2796 298.793 46.5961 297.27 46.5961H295.927C294.406 46.5961 293.312 46.2796 292.651 45.6485C291.989 45.0174 291.658 43.9007 291.658 42.3004C291.658 40.7001 291.989 39.5835 292.651 38.9524C293.312 38.3212 294.406 38.0048 295.927 38.0048Z" fill="white"/>
<path d="M310.365 45.0083L310.295 38.1827H312.007V46.4216H309.558L304.444 39.5942L304.516 46.4216H302.803V38.1827H305.253L310.365 45.0083Z" fill="white"/>
<path d="M40.1858 26.5688H40.1391V19.9482H40.1516C62.5039 17.1198 80.2781 11.0206 80.2781 6.32398C80.2781 1.62733 61.5311 0.0845618 40.1858 0.0827637H40.1391V10.0155H40.1265C17.7743 12.8439 0 18.9431 0 23.6379C0 28.3328 18.7488 29.8773 40.0923 29.8791H40.1409V36.4997H40.1283C17.7742 39.33 0 45.4291 0 50.124C0 54.8188 18.7488 56.3634 40.0923 56.3652H40.1409V46.4325H40.1534C62.5057 43.6041 80.2799 37.5049 80.2799 32.8082C80.2799 28.1116 61.5311 26.5688 40.1876 26.567" fill="white"/>
</g>
<path d="M174.623 40.4789L161.917 10.019H149.063V46.4288H157.397L157.118 17.6034L169.133 46.4288H179.753L191.768 17.6951L191.487 46.4288H199.823V10.019H187.375L174.623 40.4789Z" fill="white"/>
<path d="M213.239 10.019H204.705V46.4288H213.239V10.019Z" fill="white"/>
<path d="M140.061 27.1711C137.136 25.5348 132.436 24.7041 126.094 24.7041H117.862C114.519 24.7041 112.175 24.3786 110.894 23.7367C109.735 23.1559 109.17 22.2209 109.17 20.8795C109.17 19.7845 109.17 16.4508 118.166 16.4508H126.398C129.64 16.4508 132.069 17.0064 133.615 18.0997C134.98 19.0671 135.708 20.3401 135.831 21.98H144.118C143.997 17.7526 142.388 14.5502 139.317 12.4626C136.196 10.3391 131.389 9.26379 125.026 9.26379H119.538C116.772 9.26379 114.282 9.45259 112.139 9.8266C109.972 10.2042 108.017 10.8335 106.325 11.6948C104.587 12.5831 103.231 13.8184 102.298 15.3666C101.364 16.9111 100.89 18.8009 100.89 20.982C100.89 24.8803 102.341 27.7123 105.2 29.3972C107.996 31.0442 112.585 31.8444 119.23 31.8444H128.124C131.091 31.8444 133.227 32.177 134.469 32.8297C135.604 33.4267 136.154 34.3563 136.154 35.6689C136.154 37.0966 135.563 38.1359 134.345 38.848C133.04 39.6104 130.81 39.997 127.717 39.997H118.47C112.151 39.997 108.943 38.1845 108.681 34.466H100.393C100.512 38.6951 102.123 41.8976 105.194 43.987C108.316 46.1087 113.124 47.1858 119.486 47.1858H125.991C138.364 47.1858 144.639 43.2605 144.639 35.5197C144.639 31.6825 143.098 28.8757 140.061 27.1747" fill="white"/>
<path d="M235.003 38.1827H233.291V46.4216H235.003V38.1827Z" fill="white"/>
<path d="M231.024 13.457H232.95C234.417 13.457 235.483 13.644 236.149 14.0162C236.814 14.3884 237.149 14.9997 237.149 15.8466C237.149 17.5728 235.741 18.4359 232.927 18.4359H231.404C229.936 18.4359 228.848 18.195 228.14 17.7113C227.43 17.2294 227.076 16.485 227.076 15.4816H228.728C228.728 16.5173 229.541 17.0352 231.166 17.0352H233.331C234.085 17.0352 234.626 16.9381 234.955 16.7457C235.284 16.5533 235.448 16.2656 235.448 15.8808C235.448 15.5194 235.291 15.2569 234.978 15.0914C234.665 14.926 234.147 14.8451 233.426 14.8451H231.346C229.832 14.8451 228.762 14.6599 228.135 14.2913C227.509 13.9227 227.194 13.3059 227.194 12.4428C227.194 11.9555 227.297 11.542 227.503 11.2003C227.708 10.8587 228.005 10.5908 228.39 10.3948C228.775 10.1988 229.213 10.0567 229.71 9.97224C230.206 9.88593 230.774 9.84277 231.416 9.84277H232.7C234.167 9.84277 235.255 10.0837 235.964 10.5674C236.674 11.0493 237.028 11.7937 237.028 12.7971H235.376C235.376 12.3116 235.181 11.9304 234.793 11.6553C234.405 11.3802 233.815 11.2435 233.022 11.2435H231.096C229.598 11.2435 228.848 11.6355 228.848 12.4213C228.848 12.7899 229.008 13.0542 229.33 13.216C229.652 13.376 230.217 13.457 231.024 13.457Z" fill="white"/>
<path d="M243.444 18.4359H242.374C240.93 18.4359 239.887 18.1176 239.24 17.4829C238.594 16.8464 238.271 15.7333 238.271 14.1402V10.0208H239.982V14.1402C239.982 15.1921 240.16 15.9221 240.518 16.3285C240.874 16.7367 241.512 16.9399 242.433 16.9399H243.397C244.316 16.9399 244.954 16.7367 245.312 16.3285C245.668 15.9203 245.848 15.1903 245.848 14.1402V10.0208H247.549V14.1402C247.549 15.7333 247.225 16.8481 246.58 17.4829C245.934 18.1194 244.889 18.4359 243.445 18.4359" fill="white"/>
<path d="M252.643 13.457H254.569C256.036 13.457 257.102 13.644 257.767 14.0162C258.433 14.3884 258.765 14.9997 258.765 15.8466C258.765 17.5728 257.357 18.4359 254.543 18.4359H253.02C251.553 18.4359 250.465 18.195 249.757 17.7113C249.047 17.2294 248.692 16.485 248.692 15.4816H250.345C250.345 16.5173 251.158 17.0352 252.783 17.0352H254.948C255.701 17.0352 256.243 16.9381 256.572 16.7457C256.901 16.5533 257.064 16.2656 257.064 15.8808C257.064 15.5194 256.908 15.2569 256.595 15.0914C256.282 14.926 255.764 14.8451 255.043 14.8451H252.963C251.449 14.8451 250.377 14.6599 249.751 14.2913C249.126 13.9227 248.811 13.3059 248.811 12.4428C248.811 11.9555 248.913 11.542 249.12 11.2003C249.327 10.8587 249.622 10.5908 250.007 10.3948C250.392 10.1988 250.832 10.0567 251.327 9.97224C251.823 9.88593 252.391 9.84277 253.033 9.84277H254.317C255.784 9.84277 256.872 10.0837 257.58 10.5674C258.291 11.0493 258.645 11.7937 258.645 12.7971H256.992C256.992 12.3116 256.798 11.9304 256.41 11.6553C256.021 11.3802 255.432 11.2435 254.639 11.2435H252.713C251.215 11.2435 250.465 11.6355 250.465 12.4213C250.465 12.7899 250.625 13.0542 250.947 13.216C251.267 13.376 251.834 13.457 252.641 13.457" fill="white"/>
<path d="M259.458 10.0209H267.188V11.3748H264.179V18.2598H262.468V11.3748H259.458V10.0209Z" fill="white"/>
<path d="M271.136 11.328L269.221 15.5661H273.621L271.791 11.328H271.136ZM276.583 18.2615H274.786L274.18 16.8608H268.639L268.008 18.2615H266.224L269.993 10.0226H272.931L276.581 18.2615H276.583Z" fill="white"/>
<path d="M279.156 10.0209H277.444V18.2598H279.156V10.0209Z" fill="white"/>
<path d="M288.238 16.8483L288.166 10.0209H289.88V18.2598H287.429L282.317 11.4342L282.387 18.2598H280.675V10.0209H283.124L288.238 16.8483Z" fill="white"/>
<path d="M295.659 11.328L293.744 15.5661H298.144L296.313 11.328H295.659ZM301.105 18.2615H299.309L298.703 16.8608H293.161L292.53 18.2615H290.746L294.515 10.0226H297.453L301.103 18.2615H301.105Z" fill="white"/>
<path d="M303.68 16.8824H307.711C308.226 16.8824 308.598 16.7979 308.823 16.6289C309.049 16.4599 309.163 16.165 309.163 15.7406C309.163 15.3415 309.046 15.0699 308.812 14.9279C308.578 14.7858 308.165 14.7157 307.569 14.7157H303.68V16.8806V16.8824ZM307.462 11.3856H303.68V13.5506H307.402C307.972 13.5506 308.37 13.484 308.591 13.351C308.812 13.2179 308.923 12.9428 308.923 12.5274C308.923 12.0887 308.81 11.7884 308.584 11.6266C308.357 11.4665 307.983 11.3856 307.46 11.3856M309.648 14.117C310.481 14.4154 310.896 14.9962 310.896 15.8593C310.896 16.7224 310.671 17.3284 310.223 17.7006C309.776 18.0728 309.056 18.2598 308.066 18.2598H301.965V10.0209H307.827C308.817 10.0209 309.537 10.2061 309.984 10.5747C310.432 10.9433 310.657 11.56 310.657 12.4231C310.657 13.2862 310.321 13.8364 309.646 14.1188" fill="white"/>
<path d="M312.133 10.0209H313.845V16.7656H318.639V18.2598H312.133V10.0209Z" fill="white"/>
<path d="M327.606 10.0209V11.5151H321.388V13.493H326.536V14.7876H321.388V16.7656H327.724V18.2598H319.674V10.0209H327.606Z" fill="white"/>
<path d="M238.885 24.1018V32.3407H237.22L237.292 25.0314L234.236 32.3407H231.939L228.884 25.0081L228.955 32.3407H227.291V24.1018H230.06L233.13 31.4578L236.21 24.1018H238.885Z" fill="white"/>
<path d="M244.665 25.4072L242.75 29.6454H247.15L245.319 25.4072H244.665ZM250.111 32.3407H248.315L247.709 30.94H242.167L241.536 32.3407H239.752L243.521 24.1018H246.459L250.109 32.3407H250.111Z" fill="white"/>
<path d="M249.172 24.1018H256.902V25.4558H253.892V32.3407H252.181V25.4558H249.172V24.1018Z" fill="white"/>
<path d="M265.814 24.1018V25.596H259.596V27.5739H264.744V28.8686H259.596V30.8465H265.934V32.3407H257.882V24.1018H265.814Z" fill="white"/>
<path d="M272.699 25.5618H268.809V28.2679H272.544C273.193 28.2679 273.636 28.1834 273.869 28.0144C274.103 27.8454 274.22 27.5145 274.22 27.02C274.22 26.4626 274.105 26.0814 273.875 25.8728C273.645 25.6643 273.253 25.5618 272.697 25.5618M274.434 28.9044C275.004 28.9908 275.419 29.1688 275.676 29.4403C275.934 29.7118 276.063 30.1218 276.063 30.6702V32.3406H274.339V30.7403C274.339 30.3088 274.225 30.0193 274.001 29.87C273.774 29.7208 273.368 29.6471 272.781 29.6471H268.809V32.3424H267.098V24.1035H273.114C274.121 24.1035 274.844 24.3103 275.284 24.7221C275.725 25.1338 275.944 25.8459 275.944 26.8582C275.944 27.4857 275.824 27.9569 275.581 28.2697C275.338 28.5826 274.957 28.7966 274.434 28.9062" fill="white"/>
<path d="M279.102 24.1018H277.39V32.3407H279.102V24.1018Z" fill="white"/>
<path d="M284.876 25.4072L282.961 29.6454H287.361L285.53 25.4072H284.876ZM290.322 32.3407H288.526L287.92 30.94H282.378L281.747 32.3407H279.963L283.732 24.1018H286.67L290.32 32.3407H290.322Z" fill="white"/>
<path d="M291.183 24.1018H292.897V30.8465H297.689V32.3407H291.183V24.1018Z" fill="white"/>
<path d="M302.479 27.538H304.405C305.872 27.538 306.938 27.725 307.604 28.0972C308.269 28.4694 308.603 29.0808 308.603 29.9277C308.603 31.6538 307.195 32.5169 304.381 32.5169H302.858C301.391 32.5169 300.303 32.276 299.595 31.7923C298.885 31.3104 298.53 30.566 298.53 29.5626H300.183C300.183 30.5984 300.996 31.1162 302.621 31.1162H304.786C305.539 31.1162 306.081 31.0191 306.41 30.8267C306.739 30.6343 306.904 30.3466 306.904 29.9618C306.904 29.6004 306.748 29.3379 306.435 29.1725C306.122 29.007 305.604 28.9261 304.883 28.9261H302.803C301.289 28.9261 300.217 28.7409 299.591 28.3723C298.965 28.0037 298.653 27.3869 298.653 26.5239C298.653 26.0384 298.755 25.623 298.962 25.2814C299.169 24.9397 299.464 24.6718 299.848 24.4758C300.233 24.2798 300.674 24.1378 301.168 24.0515C301.664 23.9652 302.233 23.922 302.875 23.922H304.158C305.626 23.922 306.713 24.1629 307.422 24.6466C308.132 25.1303 308.486 25.8729 308.486 26.8781H306.834C306.834 26.3926 306.64 26.0114 306.251 25.7363C305.863 25.4612 305.271 25.3245 304.48 25.3245H302.553C301.055 25.3245 300.305 25.7165 300.305 26.5023C300.305 26.8709 300.465 27.1352 300.787 27.297C301.109 27.4589 301.673 27.538 302.481 27.538" fill="white"/>
<path d="M317.615 31.1863H318.139C318.75 31.1863 319.234 31.0532 319.59 30.7871L317.116 29.2444C316.688 28.9854 316.319 28.7499 316.01 28.5377C315.614 28.7571 315.415 29.1293 315.415 29.6561C315.415 30.6774 316.149 31.1863 317.615 31.1863ZM321.086 30.1272L323.132 31.3751L322.323 32.5061L320.634 31.447C320.111 32.1609 319.227 32.5187 317.982 32.5187H317.292C316.206 32.5187 315.359 32.2849 314.753 31.8174C314.147 31.3499 313.843 30.7296 313.843 29.9528C313.843 28.9567 314.354 28.3291 315.377 28.0702C314.798 27.5757 314.508 27.0183 314.508 26.3998C314.508 25.6302 314.814 25.026 315.424 24.5873C316.035 24.1485 316.891 23.9274 317.991 23.9274C319.092 23.9274 320.003 24.1665 320.625 24.6448C321.248 25.1231 321.559 25.8298 321.559 26.763H319.989C319.989 26.3009 319.823 25.9358 319.494 25.6679C319.165 25.4018 318.664 25.2688 317.989 25.2688C317.315 25.2688 316.86 25.3748 316.551 25.587C316.242 25.7992 316.087 26.0815 316.087 26.4339C316.087 26.6857 316.168 26.905 316.332 27.0938C316.493 27.2826 316.794 27.5056 317.229 27.7645L320.178 29.577C320.185 29.5303 320.19 29.4637 320.19 29.3774V27.8239H322.807V29.1778H321.095V29.8251C321.095 29.9582 321.091 30.0607 321.082 30.1308" fill="white"/>
<path d="M238.085 45.0083L238.013 38.1827H239.725V46.4216H237.276L232.162 39.5942L232.234 46.4216H230.521V38.1827H232.972L238.085 45.0083Z" fill="white"/>
<path d="M248.815 45.0083L248.744 38.1827H250.456V46.4216H248.007L242.893 39.5942L242.965 46.4216H241.252V38.1827H243.703L248.815 45.0083Z" fill="white"/>
<path d="M256.009 45.1019H257.352C258.359 45.1019 259.044 44.9005 259.409 44.4959C259.774 44.0913 259.956 43.3595 259.956 42.3004C259.956 41.2413 259.774 40.5095 259.409 40.1049C259.044 39.7004 258.359 39.499 257.352 39.499H256.009C255.009 39.499 254.326 39.7004 253.957 40.1049C253.589 40.5095 253.403 41.2413 253.403 42.3004C253.403 43.3595 253.587 44.0913 253.957 44.4959C254.326 44.9005 255.009 45.1019 256.009 45.1019ZM256.009 38.0048H257.352C258.875 38.0048 259.966 38.3212 260.628 38.9524C261.29 39.5835 261.621 40.7001 261.621 42.3004C261.621 43.9007 261.29 45.0174 260.628 45.6485C259.966 46.2796 258.875 46.5961 257.352 46.5961H256.009C254.486 46.5961 253.394 46.2796 252.733 45.6485C252.071 45.0174 251.74 43.9007 251.74 42.3004C251.74 40.7001 252.071 39.5835 252.733 38.9524C253.394 38.3212 254.486 38.0048 256.009 38.0048Z" fill="white"/>
<path d="M266.733 45.2565L269.705 38.1827H271.489L267.957 46.4216H265.508L261.975 38.1827H263.759L266.733 45.2565Z" fill="white"/>
<path d="M275.436 39.4882L273.521 43.7263H277.921L276.09 39.4882H275.436ZM280.882 46.4216H279.086L278.48 45.0209H272.938L272.307 46.4216H270.523L274.292 38.1827H277.23L280.88 46.4216H280.882Z" fill="white"/>
<path d="M279.943 38.1827H287.673V39.5349H284.665V46.4216H282.952V39.5349H279.943V38.1827Z" fill="white"/>
<path d="M290.367 38.1827H288.655V46.4216H290.367V38.1827Z" fill="white"/>
<path d="M295.927 45.1019H297.27C298.277 45.1019 298.962 44.9005 299.327 44.4959C299.692 44.0913 299.874 43.3595 299.874 42.3004C299.874 41.2413 299.692 40.5095 299.327 40.1049C298.962 39.7004 298.277 39.499 297.27 39.499H295.927C294.927 39.499 294.244 39.7004 293.875 40.1049C293.506 40.5095 293.321 41.2413 293.321 42.3004C293.321 43.3595 293.505 44.0913 293.875 44.4959C294.244 44.9005 294.927 45.1019 295.927 45.1019ZM295.927 38.0048H297.27C298.791 38.0048 299.884 38.3212 300.546 38.9524C301.208 39.5835 301.539 40.7001 301.539 42.3004C301.539 43.9007 301.208 45.0174 300.546 45.6485C299.884 46.2796 298.793 46.5961 297.27 46.5961H295.927C294.406 46.5961 293.312 46.2796 292.651 45.6485C291.989 45.0174 291.658 43.9007 291.658 42.3004C291.658 40.7001 291.989 39.5835 292.651 38.9524C293.312 38.3212 294.406 38.0048 295.927 38.0048Z" fill="white"/>
<path d="M310.365 45.0083L310.295 38.1827H312.007V46.4216H309.558L304.444 39.5942L304.516 46.4216H302.803V38.1827H305.253L310.365 45.0083Z" fill="white"/>
<path d="M40.1858 26.5688H40.1391V19.9482H40.1516C62.5039 17.1198 80.2781 11.0206 80.2781 6.32398C80.2781 1.62733 61.5311 0.0845618 40.1858 0.0827637H40.1391V10.0155H40.1265C17.7743 12.8439 0 18.9431 0 23.6379C0 28.3328 18.7488 29.8773 40.0923 29.8791H40.1409V36.4997H40.1283C17.7742 39.33 0 45.4291 0 50.124C0 54.8188 18.7488 56.3634 40.0923 56.3652H40.1409V46.4325H40.1534C62.5057 43.6041 80.2799 37.5049 80.2799 32.8082C80.2799 28.1116 61.5311 26.5688 40.1876 26.567" fill="white"/>
<defs>
<clipPath id="clip0_102_150">
<rect width="328" height="57" fill="white"/>
</clipPath>
</defs>
</svg>
