<svg width="328" height="55" viewBox="0 0 328 55" fill="none" xmlns="http://www.w3.org/2000/svg">
<path fill-rule="evenodd" clip-rule="evenodd" d="M197.957 14.7173C198.166 14.6673 198.255 14.8823 198.434 14.8823C198.776 14.8923 198.9 15.1472 198.96 15.4372C199.074 15.9171 199.168 16.397 199.262 16.8819C200.076 21.0212 200.895 25.1554 201.709 29.2947C201.793 29.7346 201.858 30.1845 201.957 30.6194C202.056 31.0693 202.151 31.1543 202.607 31.1593C204.146 31.1743 205.679 31.1843 207.218 31.1743C207.739 31.1693 207.813 31.0743 207.714 30.5544C207.317 28.4048 206.91 26.2602 206.518 24.1106C205.456 18.3617 204.394 12.6177 203.337 6.86374C202.975 4.8841 202.622 2.90446 202.255 0.919824C202.235 0.819842 202.21 0.714861 202.2 0.60988C202.171 0.22495 202.26 0.119969 202.657 0.0799765C202.826 0.0549811 202.999 0.0599802 203.168 0.0599802C208.672 0.0549811 214.175 0.049982 219.679 0.0449829C219.932 0.0449829 220.18 0.0649793 220.433 0.154963C220.801 0.289938 221.049 0.519897 221.133 0.914825C221.227 1.35474 221.337 1.79466 221.426 2.22959C222.458 7.13369 223.48 12.0428 224.513 16.9419C225.872 23.4207 227.242 29.8946 228.607 36.3684C229.788 41.9824 230.969 47.7913 232.16 53.4003C232.423 54.6451 232.23 54.895 230.964 54.895C225.292 54.895 219.615 54.895 213.947 54.895C213.649 54.895 213.337 54.94 213.069 54.79C212.632 54.5401 212.334 54.2501 212.23 53.6752C211.659 50.4258 211.029 47.0014 210.419 43.757C210.051 41.8024 209.679 39.8428 209.297 37.8881C209.099 36.8383 209.079 36.8433 208.012 36.8433C206.841 36.8433 205.664 36.8433 204.488 36.8433C204.339 36.8433 204.19 36.8383 204.047 36.8433C203.396 36.8683 203.287 36.9933 203.391 37.6232C203.516 38.363 203.645 39.0979 203.783 39.8378C204.627 44.4469 205.481 49.0611 206.324 53.6702C206.473 54.4651 206.3 54.865 205.481 54.905C205.352 54.915 205.228 54.91 205.094 54.91C199.357 54.91 193.625 54.91 187.883 54.91C187.382 54.91 186.851 54.765 186.424 54.4401C186.146 54.2301 186.091 54.0602 186.201 53.7502C186.454 53.0004 186.692 52.2455 186.92 51.4856C188.444 46.3966 189.962 41.3075 191.486 36.2234C192.741 32.0192 194.017 27.8199 195.272 23.6107C196.096 20.8412 196.905 18.0667 197.719 15.2922C197.794 15.1022 197.813 14.8773 197.957 14.7173Z" fill="white"/>
<path fill-rule="evenodd" clip-rule="evenodd" d="M70.8178 1.38474C70.8178 1.08979 70.8079 0.789845 70.788 0.494898C70.7682 0.199952 70.9022 0.0499791 71.1851 0.0499791C71.5424 0.04498 71.9047 0.0299827 72.262 0.0649764C74.1875 0.274938 76.0386 0.75985 77.8549 1.41973C80.7383 2.45954 83.2841 4.06925 85.5918 6.06389C86.6637 6.98872 87.6315 8.03353 88.5248 9.14333C90.3709 11.4329 91.8299 13.9575 92.887 16.712C93.7951 19.0815 94.4105 21.5211 94.6835 24.0456C94.8125 25.2004 94.9266 26.3702 94.9018 27.53C94.8125 31.7342 94.0383 35.7835 92.2914 39.6328C91.1848 42.0623 89.8051 44.3169 88.0533 46.3216C86.6637 47.9163 85.1154 49.366 83.3735 50.5908C80.0633 52.9104 76.4158 54.3101 72.4158 54.78C71.9989 54.83 71.5821 54.88 71.19 54.6101C70.8674 54.3901 70.664 54.1401 70.7086 53.7302C70.7285 53.5003 70.7086 53.2603 70.7086 53.0303C70.7483 53.0303 70.8178 18.6066 70.8178 1.38474Z" fill="white"/>
<path fill-rule="evenodd" clip-rule="evenodd" d="M67.1851 1.38474C67.1851 1.08979 67.195 0.789845 67.2148 0.494898C67.2347 0.199952 67.1057 0.0499791 66.8178 0.0499791C66.4655 0.04498 66.1082 0.0299827 65.7509 0.0649764C63.8452 0.274938 62.004 0.75985 60.2075 1.41973C57.349 2.45954 54.8279 4.06925 52.5401 6.06389C51.4781 6.98872 50.5153 8.03353 49.6369 9.14333C47.8057 11.4329 46.3616 13.9575 45.3144 16.712C44.4112 19.0815 43.8058 21.5211 43.5328 24.0456C43.4088 25.2004 43.2896 26.3702 43.3145 27.53C43.4038 31.7342 44.168 35.7835 45.905 39.6328C47.0018 42.0623 48.3665 44.3169 50.1034 46.3216C51.4831 47.9163 53.0116 49.366 54.7436 50.5908C58.0239 52.9104 61.6368 54.3101 65.602 54.78C66.0139 54.83 66.4307 54.88 66.8129 54.6101C67.1354 54.3901 67.334 54.1401 67.2893 53.7302C67.2694 53.5003 67.2893 53.2603 67.2893 53.0303C67.2595 53.0303 67.19 18.6066 67.1851 1.38474Z" fill="white"/>
<path fill-rule="evenodd" clip-rule="evenodd" d="M300.631 27.52C300.631 36.0484 300.631 44.5869 300.631 53.1153C300.631 53.4903 300.65 53.8752 300.551 54.2501C300.432 54.71 300.283 54.85 299.822 54.91C299.658 54.93 299.489 54.925 299.32 54.925C293.732 54.925 288.139 54.92 282.551 54.925C282.115 54.925 281.723 54.88 281.38 54.5701C281.192 54.3951 281.087 54.2151 281.092 53.9702C281.092 53.8652 281.092 53.7552 281.092 53.6502C281.092 36.8233 281.097 19.9864 281.097 3.15442C281.097 2.24459 281.291 1.33975 281.157 0.429916C281.122 0.204957 281.266 0.0699815 281.489 0.0499851C281.678 0.0249897 281.867 0.0199906 282.05 0.0149915C287.817 0.00999239 293.574 0.0049933 299.33 -0.00500488C299.479 -0.00500488 299.628 -0.00500488 299.772 0.0249897C300.323 0.129971 300.477 0.289941 300.591 0.839842C300.65 1.16978 300.636 1.51472 300.636 1.85466C300.631 10.4131 300.631 18.9665 300.631 27.52Z" fill="white"/>
<path fill-rule="evenodd" clip-rule="evenodd" d="M316.159 54.965C312.625 54.965 309.097 54.965 305.569 54.965C305.335 54.965 305.102 54.975 304.874 54.945C304.253 54.86 304.04 54.4301 304.04 53.8152C304.045 51.6556 304.005 32.819 304.03 25.5703C304.05 19.8614 304.03 3.49436 304.03 1.00981C304.03 0.0749811 303.926 0.0599839 304.884 0.0549848C312.075 0.0449866 319.261 0.0399875 326.452 0.0349884C326.685 0.0349884 326.913 0.0349884 327.136 0.119973C327.628 0.309938 327.722 0.564892 327.394 0.984816C327.067 1.39474 326.71 1.78967 326.357 2.1796C324.804 3.87929 323.275 5.59398 321.757 7.31866C320.739 8.48345 319.677 9.59825 318.65 10.748C317.295 12.2528 315.965 13.7825 314.616 15.2972C313.618 16.412 312.601 17.5118 311.593 18.6266C310.635 19.6964 309.693 20.7762 308.745 21.851C308.268 22.3859 307.762 22.8908 307.305 23.4457C306.75 24.1106 306.139 24.7255 305.554 25.3654C305.107 25.8453 305.107 26.0553 305.514 26.5652C307.578 29.1097 309.638 31.6542 311.702 34.1888C313.762 36.7133 315.821 39.2229 317.876 41.7474C319.633 43.912 321.375 46.0866 323.132 48.2512C324.596 50.0559 326.069 51.8606 327.538 53.6502C327.697 53.8502 327.866 54.0452 327.95 54.2851C328.074 54.6351 327.93 54.88 327.573 54.93C327.345 54.965 327.112 54.955 326.883 54.955C323.305 54.965 319.737 54.965 316.159 54.965Z" fill="white"/>
<path fill-rule="evenodd" clip-rule="evenodd" d="M163.645 27.635C163.645 36.1384 163.645 44.6319 163.645 53.1353C163.645 53.4953 163.655 53.8652 163.576 54.2201C163.447 54.78 163.308 54.9 162.757 54.935C162.633 54.94 162.504 54.94 162.375 54.94C156.191 54.94 150.008 54.935 143.834 54.94C143.402 54.94 142.99 54.93 142.638 54.6101C142.42 54.4301 142.305 54.2351 142.31 53.9602C142.315 53.7202 142.296 53.4853 142.33 53.2503C142.425 52.6504 142.41 52.0555 142.41 51.4556C142.415 34.6887 142.415 17.9217 142.415 1.15477C142.415 0.204946 142.42 0.189949 143.377 0.18495C149.685 0.179951 155.998 0.174951 162.305 0.169952C163.253 0.169952 163.561 0.464899 163.64 1.41973C163.66 1.69468 163.65 1.97462 163.65 2.25457C163.645 10.718 163.645 19.1765 163.645 27.635Z" fill="white"/>
<path fill-rule="evenodd" clip-rule="evenodd" d="M167.069 16.237C167.069 11.2929 167.069 6.34883 167.069 1.39973C167.069 0.364921 167.069 0.329928 168.112 0.234945C169.407 0.114967 170.712 0.134963 172.007 0.219948C173.968 0.349924 175.893 0.694861 177.764 1.33974C179.799 2.03462 181.645 3.05443 183.238 4.53916C186.072 7.18368 187.57 10.4781 188.141 14.2474C188.647 17.5918 188.335 20.8612 187.124 24.0206C186.632 25.3054 185.928 26.4752 185.044 27.54C183.069 29.9195 180.464 31.2543 177.551 32.0492C176.067 32.4491 174.548 32.6091 173.015 32.729C171.402 32.849 169.829 32.704 168.236 32.5691C167.873 32.5391 167.595 32.3841 167.337 32.1391C167.154 31.9692 167.054 31.7742 167.064 31.5193C167.064 31.3893 167.059 31.2593 167.059 31.1343C167.059 26.1652 167.059 21.2011 167.059 16.232C167.064 16.237 167.069 16.237 167.069 16.237Z" fill="white"/>
<path fill-rule="evenodd" clip-rule="evenodd" d="M98.331 27.27C98.331 18.5666 98.331 9.8632 98.331 1.16978C98.331 0.169966 98.4005 0.0749832 99.403 0.0699842C101.745 0.0549869 104.093 0.059986 106.44 0.059986C110.177 0.059986 113.919 0.0549869 117.656 0.0499878C117.78 0.0499878 117.914 0.0499878 118.038 0.0549869C118.892 0.104978 119.209 0.429919 119.234 1.27477C119.239 1.46973 119.234 1.66469 119.234 1.84966C119.234 18.9566 119.234 36.0634 119.234 53.1653C119.234 53.4853 119.244 53.8002 119.199 54.1152C119.135 54.5801 118.901 54.775 118.44 54.82C118.311 54.83 118.187 54.83 118.058 54.83C111.993 54.83 105.934 54.83 99.8695 54.83C99.4625 54.83 99.0754 54.81 98.7231 54.5501C98.46 54.3601 98.2913 54.1552 98.3161 53.8202C98.3211 53.7352 98.3161 53.6502 98.3161 53.5653C98.3161 44.8019 98.3161 36.0384 98.3161 27.275C98.3211 27.27 98.3261 27.27 98.331 27.27Z" fill="white"/>
<path fill-rule="evenodd" clip-rule="evenodd" d="M138.896 43.3821C138.896 46.7115 138.896 50.0459 138.896 53.3803C138.896 53.5903 138.901 53.8002 138.886 54.0152C138.837 54.5951 138.628 54.805 138.052 54.82C137.646 54.835 137.244 54.825 136.847 54.825C132.579 54.825 128.316 54.825 124.043 54.83C123.611 54.83 123.234 54.77 122.867 54.4801C122.589 54.2551 122.589 54.1252 122.777 53.8702C123.264 53.2053 123.74 52.5304 124.216 51.8556C125.219 50.4108 126.221 48.9661 127.214 47.5164C129.968 43.5271 132.723 39.5278 135.472 35.5335C136.211 34.4487 136.936 33.3489 137.67 32.2641C137.78 32.0992 137.879 31.7892 138.112 31.9042C138.4 32.0542 138.851 32.0792 138.871 32.5591C138.886 32.794 138.891 33.029 138.891 33.2589C138.896 36.6333 138.896 40.0077 138.896 43.3821Z" fill="white"/>
<path fill-rule="evenodd" clip-rule="evenodd" d="M26.3222 54.865C25.7465 54.865 25.1758 54.87 24.6051 54.865C24.2825 54.86 23.9748 54.805 23.7018 54.6101C23.151 54.2201 23.1212 54.1502 23.4686 53.5803C24.9673 51.1757 24.7291 48.7911 23.3842 46.4166C22.6845 45.1818 21.821 44.072 20.9029 43.0072C19.2453 41.0825 17.4836 39.2579 15.7615 37.3932C12.0097 33.3639 8.49612 29.1347 5.43909 24.5355C4.00487 22.3759 2.75427 20.1213 1.89572 17.6568C1.27042 15.8671 0.828742 14.0574 0.868444 12.1328C0.903183 10.848 0.908146 9.56826 1.2208 8.30849C2.05949 4.9541 4.06939 2.62453 7.22567 1.30977C8.82862 0.644886 10.511 0.304948 12.238 0.214964C12.9626 0.174972 13.6772 0.0999852 14.4017 0.119982C14.7888 0.134979 15.171 0.159974 15.5382 0.274953C15.9997 0.414928 16.1486 0.689878 16.0146 1.15479C15.9501 1.37975 15.8409 1.58971 15.7367 1.79968C15.2801 2.68452 15.0022 3.63934 14.9576 4.62916C14.9129 5.72396 15.0717 6.80377 15.6275 7.79359C16.2479 8.89339 17.032 9.87321 17.8409 10.843C19.3396 12.6177 21.017 14.2274 22.5952 15.9321C24.0294 17.4818 25.5678 18.9266 26.9921 20.4763C28.1584 21.751 29.3395 23.0058 30.466 24.3106C31.5677 25.5904 32.6446 26.8851 33.662 28.2299C35.9002 31.1843 37.8505 34.3138 39.0366 37.8681C39.6718 39.7728 39.9944 41.7324 39.8654 43.7421C39.7314 45.9067 39.2401 47.9713 38.0391 49.8209C37.2302 51.0607 36.1731 52.0305 34.9275 52.8004C33.1359 53.9052 31.1658 54.4451 29.1062 54.75C28.1881 54.88 27.2601 54.875 26.3222 54.865Z" fill="white"/>
<path fill-rule="evenodd" clip-rule="evenodd" d="M10.1338 54.89C7.27035 54.89 4.40687 54.885 1.53843 54.895C1.12156 54.895 0.75432 54.825 0.397006 54.5901C0.109169 54.4051 -0.0198614 54.1801 0.00495216 53.8502C0.0347284 53.3603 0.0992435 52.8754 0.0992435 52.3855C0.104206 45.7167 0.104206 39.0479 0.0992435 32.3841C0.0992435 31.9742 0.0297657 31.5693 0.0148776 31.1743C0.00495216 30.7644 0.0645046 30.7494 0.446633 30.8294C0.962754 30.9294 1.30518 31.2443 1.62279 31.6342C3.43914 33.8938 5.26542 36.1384 7.08673 38.388C8.4217 40.0427 9.7517 41.7124 11.0867 43.3671C13.0569 45.8017 15.0271 48.2312 16.9923 50.6658C17.8757 51.7556 18.759 52.8504 19.6275 53.9552C20.0046 54.4351 19.8409 54.82 19.2503 54.89C19.0419 54.91 18.8235 54.9 18.6101 54.9C15.7814 54.89 12.9626 54.89 10.1338 54.89Z" fill="white"/>
<path fill-rule="evenodd" clip-rule="evenodd" d="M35.8059 10.1931C35.8059 13.0526 35.8059 15.9171 35.8059 18.7766C35.8059 18.9915 35.8158 19.2015 35.781 19.4115C35.7116 19.9114 35.3443 20.0863 34.9026 19.8364C34.7339 19.7414 34.6198 19.5914 34.5007 19.4365C30.9077 14.9023 27.3147 10.3681 23.7217 5.82894C22.481 4.26922 21.2403 2.7145 19.9996 1.15479C19.9053 1.03981 19.821 0.91483 19.7416 0.789853C19.4091 0.294943 19.4488 0.19996 20.0195 0.139971C20.2279 0.114976 20.4463 0.119975 20.6547 0.119975C25.2353 0.114976 29.8159 0.109976 34.4014 0.109976C34.5453 0.109976 34.6992 0.104977 34.8431 0.119975C35.4982 0.194961 35.781 0.494906 35.7959 1.16478C35.8059 2.09961 35.8009 3.02945 35.8009 3.95928C35.8108 6.0339 35.8108 8.11352 35.8059 10.1931Z" fill="white"/>
<path fill-rule="evenodd" clip-rule="evenodd" d="M257.778 27.54C257.778 36.1784 257.778 44.8219 257.778 53.4653C257.778 53.6952 257.788 53.9402 257.768 54.1702C257.723 54.6951 257.48 54.93 256.949 54.95C256.463 54.97 255.981 54.865 255.505 54.785C252.15 54.1951 249.043 52.9654 246.234 51.0007C243.297 48.9511 240.979 46.3266 239.267 43.1472C237.455 39.7828 236.503 36.1584 236.006 32.3941C235.654 29.7096 235.629 27.0051 235.743 24.3056C235.833 22.246 236.21 20.2213 236.761 18.2317C237.535 15.4222 238.666 12.7777 240.299 10.3681C242.294 7.43365 244.81 5.06408 247.877 3.28941C250.567 1.73469 253.46 0.754867 256.458 0.0799897C256.765 0.0100025 257.038 0.0200006 257.326 0.144978C257.609 0.269955 257.763 0.474918 257.768 0.779862C257.778 1.03482 257.778 1.28977 257.778 1.55472C257.778 10.2181 257.778 18.8716 257.778 27.54Z" fill="white"/>
<path fill-rule="evenodd" clip-rule="evenodd" d="M277.683 45.3118C277.683 48.1113 277.683 50.9107 277.683 53.7052C277.683 53.9202 277.688 54.1302 277.668 54.3401C277.629 54.77 277.47 54.93 277.048 54.975C276.884 54.995 276.725 54.985 276.557 54.985C271.902 54.985 267.247 54.985 262.592 54.995C262.145 54.995 261.758 54.915 261.4 54.6151C261.137 54.3901 261.108 54.3551 261.341 54.0752C261.703 53.6403 262.08 53.2303 262.443 52.7954C264.269 50.6308 266.09 48.4612 267.892 46.2666C269.624 44.157 271.41 42.0824 273.157 39.9877C274.14 38.7979 275.103 37.5882 276.075 36.3934C276.209 36.2334 276.333 36.0634 276.477 35.9135C276.641 35.7535 276.745 35.4636 277.078 35.6435C277.37 35.7985 277.693 35.8985 277.673 36.3384C277.663 36.5284 277.678 36.7183 277.678 36.9083C277.683 39.7228 277.683 42.5173 277.683 45.3118Z" fill="white"/>
<path fill-rule="evenodd" clip-rule="evenodd" d="M277.678 9.84821C277.678 12.6277 277.678 15.4022 277.678 18.1767C277.678 18.4566 277.708 18.7316 277.604 18.9965C277.475 19.3315 277.276 19.4065 276.959 19.2515C276.715 19.1365 276.542 18.9516 276.378 18.7566C273.862 15.7021 271.341 12.6427 268.815 9.59826C266.577 6.88875 264.328 4.19424 262.085 1.49473C261.837 1.19478 261.609 0.884841 261.381 0.584896C261.296 0.464917 261.137 0.359937 261.207 0.199966C261.296 0.00500105 261.505 0.059991 261.668 0.0499929C261.837 0.0349956 262.011 0.0399947 262.185 0.0399947C266.879 0.0349956 271.579 0.0299965 276.274 0.0199983C276.358 0.0199983 276.447 0.0149992 276.532 0.0199983C277.405 0.0649901 277.683 0.33994 277.683 1.19478C277.683 4.08426 277.678 6.96874 277.678 9.84821Z" fill="white"/>
</svg>
