<svg width="32" height="32" viewBox="0 0 32 32" fill="none" xmlns="http://www.w3.org/2000/svg">
<circle cx="16" cy="16" r="15.5" fill="#E7FFE7" stroke="#5F982A"/>
<g opacity="0.4">
<path d="M15.4009 5V6.57713L16.5236 6.04947L15.4009 5Z" fill="#8FC36B"/>
<path d="M4 19.0851L7.10595 24.51L7.41782 22.8753L11.871 25.9345L12.9127 15.7475C12.9127 15.7475 13.2682 13.7597 15.4012 14.5956L19.7232 17.0666C19.7232 17.0666 21.5193 16.082 20.1908 14.5029L11.6219 8.35388L10.2561 22.2501L7.93597 20.634L8.34754 18.6277L4.00049 19.0861L4 19.0851Z" fill="#8FC36B"/>
<path d="M4 19.0847L6.50431 17.6793L10.5827 17.3447L8.34705 18.6263L4 19.0847Z" fill="#6AB42D"/>
<path d="M10.5828 17.3447L10.4055 19.193L7.93555 20.6331L8.34712 18.6263L10.5828 17.3447Z" fill="#238235"/>
<path d="M10.4055 19.1938H10.5558L10.2557 22.2501L7.93555 20.6339L10.4055 19.1938Z" fill="#6AB42D"/>
<path d="M18.2721 10.4036V10.6372L15.6961 8.78891L18.2255 7.59265L18.2721 10.4036Z" fill="#238235"/>
<path d="M26.6173 22.3792L27.0662 16.9544L17.6728 21.1542C16.5972 21.6351 15.3806 20.8514 15.3846 19.68V19.5737L15.4013 14.595C13.2678 13.7591 12.9132 15.7464 12.9132 15.7464L11.8715 25.9329L24.7186 20.1618L24.5443 23.0478L22.4176 23.6887L25.0742 27.1814L28.1801 21.8496L26.6178 22.3788L26.6173 22.3792Z" fill="#238235"/>
<path d="M27.0657 16.9552L17.6722 21.155C16.5966 21.6359 15.3801 20.8522 15.384 19.6808V19.5745L19.7492 17.0566C20.8027 16.407 21.0365 15.2829 20.0616 14.4081L11.6204 8.35409L16.5229 6.05033L15.4002 5.00085H21.6214L19.7969 8.98612L18.2252 7.59283L15.6993 8.79105L27.0652 16.9562L27.0657 16.9552Z" fill="#6AB42D"/>
<path d="M18.2718 10.6371L19.8449 11.7675L19.7973 8.98483L18.2256 7.59155L18.2718 10.6371Z" fill="#8FC36B"/>
<path d="M19.845 11.7674L21.6249 7.81436L21.6214 5L19.7974 8.98477L19.845 11.7674Z" fill="#238235"/>
<path d="M25.0736 27.1823L22.6975 25.807L20.1461 22.2163L22.4166 23.6891L25.0736 27.1823Z" fill="#8FC36B"/>
<path d="M20.1461 22.2166L21.866 21.4441L24.5432 23.0485L22.4166 23.6893L20.1461 22.2166Z" fill="#6AB42D"/>
<path d="M21.8662 21.4442L24.7182 20.1631L24.5434 23.0486L21.8662 21.4442Z" fill="#8FC36B"/>
</g>
<path d="M11.6094 9.625V21H9.64844V9.625H11.6094ZM18.6172 11.1406L15.2188 21H13.1641L17.4453 9.625H18.7578L18.6172 11.1406ZM21.4609 21L18.0547 11.1406L17.9062 9.625H19.2266L23.5234 21H21.4609ZM21.2969 16.7812V18.3359H15.1094V16.7812H21.2969Z" fill="#238235"/>
</svg>
