<svg width="25" height="24" viewBox="0 0 25 24" fill="none" xmlns="http://www.w3.org/2000/svg">
<path fill-rule="evenodd" clip-rule="evenodd" d="M18.8749 18.2121C18.8749 18.7641 18.3989 19 17.8124 19H16.7499C16.1634 19 15.6874 18.7641 15.6874 18.2121V17.2121C15.6874 16.1071 14.7365 15 13.5624 15H11.4374C10.2634 15 9.31246 16.1071 9.31246 17.2121V18.2121C9.31246 18.7641 8.83647 19 8.24997 19H7.18748C6.60098 19 6.12499 18.7641 6.12499 18.2121V10.1491C6.12499 10.0161 6.18129 9.88906 6.2801 9.79506L11.7381 4.65911C12.1536 4.26811 12.8261 4.26811 13.2405 4.65911L18.7198 9.81508C18.8186 9.90908 18.8749 10.0361 18.8749 10.1681V18.2121ZM20.9999 9.62508C20.9999 9.36008 20.8883 9.10709 20.6907 8.91909L13.9981 2.58912C13.1693 1.80612 11.8231 1.80314 10.9912 2.58314L4.31238 8.84811C4.11263 9.03611 4 9.29011 4 9.55611V19.212C4 20.317 4.95093 21 6.12499 21H9.31246C10.4865 21 11.4374 20.317 11.4374 19.212V18.2121C11.4374 17.6601 11.9134 17.2121 12.4999 17.2121C13.0864 17.2121 13.5624 17.6601 13.5624 18.2121V19.212C13.5624 20.317 14.5134 21 15.6874 21H18.8749C20.049 21 20.9999 20.317 20.9999 19.212V9.62508Z" fill="#155C22"/>
</svg>
