<svg width="25" height="24" viewBox="0 0 25 24" fill="none" xmlns="http://www.w3.org/2000/svg">
<path fill-rule="evenodd" clip-rule="evenodd" d="M12.5 2C6.97717 2 2.5 6.47711 2.5 12C2.5 17.5228 6.97717 22 12.5 22C18.0229 22 22.5 17.5228 22.5 12C22.5 6.47711 18.0229 2 12.5 2ZM12.5 20C8.08881 20 4.5 16.4112 4.5 12C4.5 7.58881 8.08881 4 12.5 4C16.9112 4 20.5 7.58881 20.5 12C20.5 16.4112 16.9112 20 12.5 20ZM13.7522 8C13.7522 8.72504 13.2243 9.25 12.5102 9.25C11.7671 9.25 11.2522 8.72504 11.2522 7.98613C11.2522 7.27595 11.7811 6.75 12.5102 6.75C13.2243 6.75 13.7522 7.27595 13.7522 8ZM11.5022 11H13.5022V17H11.5022V11Z" fill="#155C22"/>
</svg>
