<svg width="25" height="24" viewBox="0 0 25 24" fill="none" xmlns="http://www.w3.org/2000/svg">
<g clip-path="url(#clip0_577_2299)">
<path fill-rule="evenodd" clip-rule="evenodd" d="M2.5 5C2.5 3.34315 3.84315 2 5.5 2H18.5C20.1569 2 21.5 3.34315 21.5 5V18C21.5 19.6569 20.1569 21 18.5 21H5.5C3.84315 21 2.5 19.6569 2.5 18V5ZM19.5 5V6C19.5 7.10457 18.6046 8 17.5 8C16.3954 8 15.5 7.10457 15.5 6C15.5 5.44772 15.0523 5 14.5 5C13.9477 5 13.5 5.44772 13.5 6V6.5C13.5 7.32843 12.8284 8 12 8C11.1716 8 10.5 7.32843 10.5 6.5V6C10.5 5.44772 10.0523 5 9.5 5C8.94772 5 8.5 5.44772 8.5 6C8.5 7.10457 7.60457 8 6.5 8C5.39543 8 4.5 7.10457 4.5 6V5C4.5 4.44772 4.94772 4 5.5 4H18.5C19.0523 4 19.5 4.44772 19.5 5ZM17.5 10C16.3796 10 15.3669 9.53938 14.6407 8.7972C13.999 9.53418 13.0539 10 12 10C10.9461 10 10.001 9.53418 9.35931 8.7972C8.63315 9.53939 7.62037 10 6.5 10C5.77143 10 5.08835 9.80521 4.5 9.46487V18C4.5 18.5523 4.94772 19 5.5 19H8.5V15C8.5 13.3431 9.84315 12 11.5 12H12.5C14.1569 12 15.5 13.3431 15.5 15V19H18.5C19.0523 19 19.5 18.5523 19.5 18V9.46487C18.9117 9.80521 18.2286 10 17.5 10ZM13.5 19V15C13.5 14.4477 13.0523 14 12.5 14H11.5C10.9477 14 10.5 14.4477 10.5 15V19H13.5Z" fill="#155C22"/>
</g>
<defs>
<clipPath id="clip0_577_2299">
<rect width="24" height="24" fill="white" transform="translate(0.5)"/>
</clipPath>
</defs>
</svg>
